#usda 1.0
(
    defaultPrim = "World"
    metersPerUnit = 1
    upAxis = "Z"
)

def Xform "World"
{
    def Mesh "Leaf"
    {
        int[] faceVertexCounts = [3, 3, 3, 3, 3, 3, 3, 3, 3, 3, 3, 3, 3, 3, 3, 3, 3, 3, 3, 3, 3, 3, 3, 3, 3, 3, 3, 3, 3, 3, 3, 3, 3, 3, 3, 3, 3, 3, 3, 3, 3, 3, 3, 3, 3, 3, 3, 3, 3, 3, 3, 3, 3, 3, 3, 3, 3, 3, 3, 3, 3, 3, 3, 3, 3, 3, 3, 3, 3, 3, 3, 3, 3, 3, 3, 3, 3, 3, 3, 3, 3, 3, 3, 3, 3, 3, 3, 3, 3, 3, 3, 3, 3, 3, 3, 3, 3, 3, 3, 3, 3, 3, 3, 3, 3, 3, 3, 3, 3, 3, 3, 3, 3, 3, 3, 3, 3, 3, 3, 3, 3, 3, 3, 3, 3, 3, 3, 3, 3, 3, 3, 3, 3, 3, 3, 3, 3, 3, 3, 3, 3, 3, 3, 3, 3, 3, 3, 3, 3, 3, 3, 3, 3, 3, 3, 3, 3, 3, 3, 3, 3, 3, 3, 3, 3, 3, 3, 3, 3, 3, 3, 3, 3, 3, 3, 3, 3, 3, 3, 3, 3, 3, 3, 3, 3, 3, 3, 3, 3, 3, 3, 3, 3, 3, 3, 3, 3, 3, 3, 3, 3, 3, 3, 3, 3, 3, 3, 3, 3, 3, 3, 3, 3, 3, 3, 3, 3, 3, 3, 3, 3, 3, 3, 3, 3, 3, 3, 3, 3, 3, 3, 3, 3, 3, 3, 3, 3, 3, 3, 3, 3, 3, 3, 3, 3, 3, 3, 3, 3, 3, 3, 3, 3, 3, 3, 3, 3, 3, 3, 3, 3, 3, 3, 3, 3, 3, 3, 3, 3, 3, 3, 3, 3, 3, 3, 3, 3, 3, 3, 3, 3, 3, 3, 3, 3, 3, 3, 3, 3, 3, 3, 3, 3, 3, 3, 3, 3, 3, 3, 3, 3, 3, 3, 3, 3, 3, 3, 3, 3, 3, 3, 3, 3, 3, 3, 3, 3, 3, 3, 3, 3, 3, 3, 3, 3, 3, 3, 3, 3, 3, 3, 3, 3, 3, 3, 3, 3, 3, 3, 3, 3, 3, 3, 3, 3, 3, 3, 3, 3, 3, 3, 3, 3, 3, 3, 3, 3, 3, 3, 3, 3, 3, 3, 3, 3, 3, 3, 3, 3, 3, 3, 3, 3, 3, 3, 3, 3, 3, 3, 3, 3, 3, 3, 3, 3, 3, 3, 3, 3, 3, 3, 3, 3, 3, 3, 3, 3, 3, 3, 3, 3, 3, 3, 3, 3, 3, 3, 3, 3, 3, 3, 3, 3, 3, 3, 3, 3, 3, 3, 3, 3, 3, 3, 3, 3, 3, 3, 3, 3, 3, 3, 3, 3, 3, 3, 3, 3, 3, 3, 3, 3, 3, 3, 3, 3, 3, 3, 3, 3, 3, 3, 3, 3, 3, 3, 3, 3, 3, 3, 3, 3, 3, 3, 3, 3, 3, 3, 3, 3, 3, 3, 3, 3, 3, 3, 3, 3, 3, 3, 3, 3, 3, 3, 3, 3, 3, 3, 3, 3, 3, 3, 3, 3, 3, 3, 3, 3, 3, 3, 3, 3, 3, 3, 3, 3, 3, 3, 3, 3, 3, 3, 3, 3, 3, 3, 3, 3, 3, 3, 3, 3, 3, 3, 3, 3, 3, 3, 3, 3, 3, 3, 3, 3, 3, 3, 3, 3, 3, 3, 3, 3, 3, 3, 3, 3, 3, 3, 3, 3, 3, 3, 3, 3, 3, 3, 3, 3, 3, 3, 3, 3, 3, 3, 3, 3, 3, 3, 3, 3, 3, 3, 3, 3, 3, 3, 3, 3, 3, 3, 3, 3, 3, 3, 3, 3, 3, 3, 3, 3, 3, 3, 3, 3, 3, 3, 3, 3, 3, 3, 3, 3, 3, 3, 3, 3, 3, 3, 3, 3, 3, 3, 3, 3, 3, 3, 3, 3, 3, 3, 3, 3, 3, 3, 3, 3, 3, 3, 3, 3, 3, 3, 3, 3, 3, 3, 3, 3, 3, 3, 3, 3, 3, 3, 3, 3, 3, 3, 3, 3, 3, 3, 3, 3, 3, 3, 3, 3, 3, 3, 3, 3, 3, 3, 3, 3, 3, 3, 3, 3, 3, 3, 3, 3, 3, 3, 3, 3, 3, 3, 3, 3, 3, 3, 3, 3, 3, 3, 3, 3, 3, 3, 3, 3, 3, 3, 3, 3, 3, 3, 3, 3, 3, 3, 3, 3, 3, 3, 3, 3, 3, 3, 3, 3, 3, 3, 3, 3, 3, 3, 3, 3, 3, 3, 3, 3, 3, 3, 3, 3, 3, 3, 3, 3, 3, 3, 3, 3, 3, 3, 3, 3, 3, 3, 3, 3, 3, 3, 3, 3, 3, 3, 3, 3, 3, 3, 3, 3, 3, 3, 3, 3, 3, 3, 3, 3, 3, 3, 3, 3, 3, 3, 3, 3, 3, 3, 3, 3, 3, 3, 3, 3, 3, 3, 3, 3, 3, 3, 3, 3, 3, 3, 3, 3, 3, 3, 3, 3, 3, 3, 3, 3, 3, 3, 3, 3, 3, 3, 3, 3, 3, 3, 3, 3, 3, 3, 3, 3, 3, 3, 3, 3, 3, 3, 3, 3, 3, 3, 3, 3, 3, 3, 3, 3, 3, 3, 3, 3, 3, 3, 3, 3, 3, 3, 3, 3, 3, 3, 3, 3, 3, 3, 3, 3, 3, 3, 3, 3, 3, 3, 3, 3, 3, 3, 3, 3, 3, 3, 3, 3, 3, 3, 3, 3, 3, 3, 3, 3, 3, 3, 3, 3, 3, 3, 3, 3, 3, 3, 3, 3, 3, 3, 3, 3, 3, 3, 3, 3, 3, 3, 3, 3, 3, 3, 3, 3, 3, 3, 3, 3, 3, 3, 3, 3, 3, 3, 3, 3, 3, 3, 3, 3, 3, 3, 3, 3, 3, 3, 3, 3, 3, 3, 3, 3, 3, 3, 3, 3, 3, 3, 3, 3, 3, 3, 3, 3, 3, 3, 3, 3, 3, 3, 3, 3, 3, 3, 3, 3, 3, 3, 3, 3, 3, 3, 3, 3, 3, 3, 3, 3, 3, 3, 3, 3, 3, 3, 3, 3, 3, 3, 3, 3, 3, 3, 3, 3, 3, 3, 3, 3, 3, 3, 3, 3, 3, 3, 3, 3, 3, 3, 3, 3, 3, 3, 3, 3, 3, 3, 3, 3, 3, 3, 3, 3, 3, 3, 3, 3, 3, 3, 3, 3, 3]
        int[] faceVertexIndices = [894, 895, 874, 895, 896, 873, 896, 897, 873, 892, 875, 891, 893, 874, 892, 893, 894, 874, 898, 872, 897, 903, 870, 902, 869, 903, 904, 904, 905, 869, 900, 871, 899, 871, 900, 901, 902, 870, 901, 872, 898, 899, 906, 868, 905, 889, 876, 888, 888, 876, 887, 875, 876, 889, 877, 885, 886, 878, 884, 885, 877, 886, 887, 875, 889, 890, 880, 882, 879, 880, 881, 882, 882, 883, 879, 883, 884, 879, 884, 878, 879, 877, 878, 885, 887, 876, 877, 875, 890, 891, 906, 907, 868, 913, 995, 912, 995, 913, 914, 912, 996, 911, 910, 996, 909, 910, 911, 996, 909, 996, 908, 995, 914, 915, 919, 920, 994, 993, 920, 921, 921, 922, 993, 916, 917, 995, 994, 917, 918, 994, 918, 919, 916, 995, 915, 923, 993, 922, 907, 908, 867, 892, 874, 875, 874, 895, 873, 872, 873, 897, 872, 899, 871, 870, 903, 869, 901, 870, 871, 868, 869, 905, 868, 907, 867, 866, 867, 997, 867, 908, 997, 864, 865, 999, 51, 862, 863, 864, 1000, 863, 866, 998, 865, 861, 862, 53, 860, 861, 55, 282, 782, 783, 280, 784, 785, 281, 783, 784, 778, 779, 299, 298, 780, 781, 779, 780, 299, 782, 283, 781, 790, 791, 275, 792, 793, 272, 792, 273, 791, 787, 278, 786, 789, 277, 788, 277, 787, 788, 789, 790, 276, 279, 785, 786, 699, 767, 768, 768, 769, 698, 700, 766, 767, 702, 763, 764, 701, 764, 765, 765, 766, 700, 698, 769, 770, 694, 774, 775, 777, 778, 691, 776, 777, 692, 696, 771, 772, 772, 773, 696, 697, 770, 771, 773, 774, 695, 693, 775, 776, 300, 691, 778, 836, 837, 838, 838, 839, 836, 836, 839, 835, 834, 835, 840, 833, 834, 841, 833, 841, 832, 839, 840, 835, 153, 844, 845, 57, 859, 860, 830, 843, 154, 841, 842, 832, 842, 831, 832, 831, 842, 843, 834, 840, 841, 843, 844, 153, 831, 843, 830, 829, 830, 154, 155, 828, 829, 794, 795, 268, 827, 156, 826, 828, 156, 827, 823, 158, 822, 821, 822, 159, 158, 824, 825, 820, 159, 819, 796, 797, 187, 157, 825, 826, 821, 159, 820, 796, 267, 795, 794, 269, 793, 923, 924, 992, 975, 963, 974, 976, 962, 975, 977, 961, 976, 966, 971, 972, 965, 972, 973, 974, 964, 973, 961, 977, 978, 959, 979, 980, 980, 981, 958, 957, 981, 982, 983, 984, 956, 985, 955, 984, 957, 982, 983, 960, 978, 979, 954, 955, 985, 960, 961, 978, 962, 976, 961, 960, 979, 959, 957, 958, 981, 959, 980, 958, 983, 956, 957, 975, 962, 963, 967, 968, 970, 969, 970, 968, 970, 971, 967, 972, 965, 966, 971, 966, 967, 973, 964, 965, 963, 964, 974, 956, 984, 955, 935, 985, 986, 1009, 18, 1008, 1007, 1008, 20, 987, 988, 932, 1005, 1006, 28, 22, 1006, 1007, 930, 988, 989, 11, 1015, 1016, 1016, 1017, 10, 1014, 1015, 12, 1011, 16, 1010, 13, 1013, 1014, 14, 1012, 1013, 1010, 17, 1009, 15, 1011, 1012, 989, 990, 928, 925, 991, 992, 990, 991, 927, 993, 994, 920, 995, 996, 912, 994, 995, 917, 992, 993, 923, 859, 60, 858, 1004, 34, 1003, 1002, 1003, 36, 998, 999, 865, 863, 1000, 48, 999, 1000, 864, 1001, 45, 1000, 997, 998, 866, 31, 1004, 1005, 986, 987, 934, 1002, 39, 1001, 908, 996, 997, 857, 858, 62, 926, 991, 925, 150, 846, 847, 848, 849, 147, 847, 848, 148, 925, 992, 924, 67, 855, 856, 857, 65, 856, 854, 855, 69, 850, 851, 144, 140, 852, 853, 162, 810, 811, 853, 854, 136, 991, 926, 927, 849, 850, 145, 817, 818, 159, 159, 816, 817, 159, 818, 819, 798, 799, 185, 815, 816, 159, 814, 815, 159, 823, 824, 158, 161, 811, 812, 814, 160, 813, 177, 801, 802, 804, 805, 170, 175, 802, 803, 160, 812, 813, 180, 800, 801, 927, 928, 990, 151, 845, 846, 948, 943, 944, 944, 945, 947, 942, 943, 949, 940, 941, 951, 941, 942, 950, 939, 940, 952, 946, 947, 945, 951, 952, 940, 939, 952, 938, 938, 952, 953, 948, 949, 943, 950, 942, 949, 950, 951, 941, 948, 944, 947, 937, 953, 954, 930, 989, 929, 928, 929, 989, 988, 930, 931, 142, 851, 852, 808, 809, 164, 163, 809, 810, 808, 165, 807, 932, 988, 931, 937, 954, 936, 938, 953, 937, 985, 936, 954, 934, 935, 986, 935, 936, 985, 933, 934, 987, 933, 987, 932, 807, 167, 806, 168, 805, 806, 803, 804, 172, 186, 797, 798, 799, 800, 183, 740, 741, 713, 741, 742, 713, 742, 743, 713, 738, 714, 737, 739, 714, 738, 739, 740, 714, 744, 712, 743, 749, 710, 748, 750, 710, 749, 751, 709, 750, 746, 712, 745, 711, 746, 747, 748, 711, 747, 712, 744, 745, 752, 709, 751, 734, 716, 733, 732, 733, 717, 734, 735, 716, 731, 718, 730, 730, 719, 729, 732, 718, 731, 715, 735, 736, 721, 722, 727, 722, 726, 727, 721, 727, 728, 724, 725, 723, 723, 725, 726, 726, 722, 723, 720, 728, 729, 715, 736, 737, 752, 753, 708, 718, 732, 717, 714, 715, 737, 754, 755, 707, 721, 728, 720, 720, 729, 719, 718, 719, 730, 707, 755, 756, 753, 754, 708, 759, 705, 758, 760, 704, 759, 761, 704, 760, 706, 756, 757, 716, 717, 733, 735, 715, 716, 706, 757, 758, 761, 762, 703, 714, 740, 713, 712, 746, 711, 743, 712, 713, 710, 750, 709, 707, 708, 754, 752, 708, 709, 748, 710, 711, 705, 706, 758, 703, 704, 761, 705, 759, 704, 702, 762, 763, 701, 765, 700, 764, 701, 702, 703, 762, 702, 707, 756, 706, 699, 700, 767, 699, 768, 698, 697, 771, 696, 770, 697, 698, 695, 774, 694, 693, 776, 692, 775, 693, 694, 773, 695, 696, 690, 691, 300, 688, 689, 301, 690, 300, 689, 686, 687, 302, 684, 685, 303, 686, 303, 685, 688, 301, 687, 777, 691, 692, 682, 683, 305, 681, 307, 680, 682, 306, 681, 679, 317, 678, 677, 319, 676, 318, 677, 678, 316, 679, 680, 675, 320, 674, 671, 672, 322, 673, 321, 672, 667, 668, 323, 666, 667, 324, 669, 670, 323, 671, 322, 670, 319, 675, 676, 684, 304, 683, 325, 662, 663, 661, 662, 325, 663, 664, 325, 660, 326, 659, 326, 658, 659, 660, 661, 325, 665, 325, 664, 657, 658, 326, 656, 657, 326, 326, 655, 656, 654, 655, 327, 654, 327, 653, 665, 666, 324, 329, 652, 653, 323, 668, 669, 652, 331, 651, 648, 649, 340, 650, 651, 334, 346, 645, 646, 642, 643, 365, 644, 645, 349, 646, 647, 344, 640, 641, 370, 638, 639, 375, 372, 639, 640, 636, 637, 378, 634, 635, 381, 635, 636, 380, 638, 377, 637, 642, 367, 641, 674, 321, 673, 650, 337, 649, 342, 647, 648, 630, 386, 629, 619, 391, 618, 630, 631, 385, 627, 628, 387, 626, 627, 388, 628, 629, 387, 631, 632, 384, 388, 624, 625, 388, 623, 624, 623, 388, 622, 626, 388, 625, 622, 389, 621, 389, 620, 621, 620, 390, 619, 633, 383, 632, 617, 618, 392, 393, 615, 616, 617, 393, 616, 613, 396, 612, 609, 610, 398, 397, 611, 612, 382, 633, 634, 398, 606, 607, 398, 605, 606, 607, 608, 398, 602, 603, 399, 399, 603, 604, 604, 605, 399, 608, 609, 398, 611, 397, 610, 394, 614, 615, 601, 602, 399, 600, 601, 399, 399, 599, 600, 599, 400, 598, 598, 400, 597, 400, 596, 597, 594, 595, 401, 403, 590, 591, 403, 589, 590, 402, 592, 593, 403, 588, 589, 403, 587, 588, 586, 587, 404, 401, 593, 594, 596, 401, 595, 585, 586, 404, 584, 585, 405, 592, 402, 591, 583, 584, 405, 582, 407, 581, 406, 582, 583, 613, 614, 395, 580, 412, 579, 576, 577, 419, 578, 418, 577, 423, 573, 574, 571, 426, 570, 572, 573, 424, 643, 644, 353, 408, 580, 581, 415, 578, 579, 576, 421, 575, 566, 434, 565, 564, 565, 435, 432, 566, 567, 563, 564, 436, 561, 562, 439, 563, 438, 562, 567, 568, 431, 559, 560, 441, 557, 558, 442, 559, 442, 558, 538, 539, 454, 554, 555, 445, 556, 444, 555, 557, 443, 556, 561, 440, 560, 447, 550, 551, 448, 549, 550, 551, 552, 447, 546, 547, 449, 448, 547, 548, 548, 549, 448, 553, 446, 552, 545, 546, 449, 544, 545, 450, 450, 543, 544, 543, 451, 542, 542, 452, 541, 553, 554, 446, 452, 540, 541, 540, 453, 539, 429, 568, 569, 537, 538, 455, 535, 536, 457, 537, 456, 536, 533, 534, 459, 461, 530, 531, 531, 532, 460, 535, 458, 534, 528, 464, 527, 525, 526, 465, 527, 465, 526, 524, 467, 523, 523, 468, 522, 525, 466, 524, 529, 463, 528, 462, 529, 530, 518, 519, 474, 517, 518, 475, 520, 472, 519, 516, 479, 515, 515, 480, 514, 517, 477, 516, 471, 520, 521, 512, 484, 511, 511, 485, 510, 483, 512, 513, 487, 508, 509, 488, 507, 508, 486, 509, 510, 482, 513, 514, 469, 521, 522, 533, 460, 532, 428, 569, 570, 422, 574, 575, 425, 571, 572, 1017, 1018, 9, 1022, 5, 1021, 4, 1022, 1023, 1023, 0, 3, 7, 1019, 1020, 1021, 6, 1020, 0, 1, 2, 2, 3, 0, 4, 5, 1022, 6, 1021, 5, 6, 7, 1020, 1018, 8, 9, 9, 10, 1017, 7, 8, 1019, 3, 4, 1023, 10, 11, 1016, 13, 1014, 12, 14, 1013, 13, 1015, 11, 12, 16, 1011, 15, 18, 1009, 17, 17, 1010, 16, 15, 1012, 14, 20, 1008, 19, 1006, 22, 23, 1007, 21, 22, 1006, 24, 25, 1006, 25, 26, 23, 24, 1006, 1007, 20, 21, 19, 1008, 18, 26, 27, 1006, 29, 1005, 28, 1005, 29, 30, 31, 1005, 30, 1004, 31, 32, 34, 1004, 33, 33, 1004, 32, 1006, 27, 28, 36, 1003, 35, 38, 39, 1002, 37, 38, 1002, 41, 1001, 40, 1001, 41, 42, 42, 43, 1001, 1001, 39, 40, 35, 1003, 34, 45, 1001, 44, 46, 1000, 45, 46, 47, 1000, 863, 48, 49, 49, 50, 863, 48, 1000, 47, 50, 51, 863, 52, 862, 51, 861, 53, 54, 52, 53, 862, 55, 56, 860, 58, 859, 57, 57, 860, 56, 54, 55, 861, 44, 1001, 43, 36, 37, 1002, 859, 58, 59, 61, 858, 60, 63, 857, 62, 62, 858, 61, 65, 857, 64, 67, 856, 66, 66, 856, 65, 63, 64, 857, 855, 68, 69, 70, 136, 854, 854, 69, 70, 72, 132, 71, 74, 128, 73, 73, 129, 72, 71, 135, 70, 68, 855, 67, 125, 75, 76, 76, 77, 124, 78, 124, 77, 80, 122, 79, 122, 80, 81, 79, 123, 78, 106, 81, 82, 83, 84, 85, 85, 106, 82, 86, 106, 85, 106, 87, 88, 89, 105, 88, 106, 86, 87, 82, 83, 85, 127, 74, 75, 89, 90, 104, 92, 103, 91, 102, 92, 93, 93, 94, 101, 99, 95, 96, 97, 98, 96, 94, 95, 100, 98, 99, 96, 100, 101, 94, 102, 93, 101, 102, 103, 92, 89, 104, 105, 105, 106, 88, 103, 104, 91, 99, 100, 95, 107, 81, 106, 108, 121, 107, 121, 108, 109, 109, 110, 120, 118, 111, 112, 112, 113, 117, 110, 111, 119, 113, 114, 116, 116, 117, 113, 118, 112, 117, 118, 119, 111, 121, 109, 120, 107, 121, 122, 119, 120, 110, 115, 116, 114, 122, 81, 107, 91, 104, 90, 59, 60, 859, 79, 122, 123, 124, 125, 76, 126, 127, 75, 126, 75, 125, 129, 73, 128, 131, 72, 130, 130, 72, 129, 128, 74, 127, 133, 71, 132, 71, 133, 134, 71, 134, 135, 853, 136, 137, 137, 138, 853, 135, 136, 70, 72, 131, 132, 138, 139, 853, 853, 139, 140, 852, 141, 142, 852, 140, 141, 851, 143, 144, 849, 145, 146, 850, 144, 145, 851, 142, 143, 847, 148, 149, 847, 149, 150, 151, 846, 150, 845, 152, 153, 843, 153, 154, 151, 152, 845, 147, 148, 848, 154, 155, 829, 147, 849, 146, 828, 155, 156, 825, 157, 158, 826, 156, 157, 812, 160, 161, 810, 162, 163, 811, 161, 162, 814, 159, 160, 808, 164, 165, 166, 167, 807, 807, 165, 166, 169, 805, 168, 170, 171, 804, 170, 805, 169, 806, 167, 168, 809, 163, 164, 172, 173, 803, 174, 175, 803, 174, 803, 173, 176, 177, 802, 178, 179, 801, 177, 178, 801, 176, 802, 175, 179, 180, 801, 183, 800, 182, 181, 182, 800, 184, 185, 799, 187, 797, 186, 798, 185, 186, 799, 183, 184, 800, 180, 181, 172, 804, 171, 159, 822, 158, 265, 187, 188, 190, 263, 189, 189, 264, 188, 262, 190, 191, 193, 224, 192, 192, 225, 191, 227, 262, 226, 194, 195, 221, 196, 220, 195, 216, 197, 198, 200, 210, 199, 208, 200, 201, 213, 198, 199, 223, 193, 194, 202, 207, 201, 243, 244, 260, 243, 261, 228, 245, 260, 244, 248, 249, 256, 257, 247, 248, 247, 258, 246, 245, 246, 259, 240, 241, 230, 237, 238, 233, 234, 236, 237, 203, 205, 202, 242, 229, 241, 231, 239, 240, 232, 238, 239, 228, 242, 243, 197, 218, 196, 187, 266, 796, 205, 206, 202, 207, 202, 206, 207, 208, 201, 210, 200, 209, 199, 210, 211, 208, 209, 200, 211, 212, 199, 214, 198, 213, 198, 214, 215, 216, 198, 215, 218, 219, 196, 197, 217, 218, 197, 216, 217, 213, 199, 212, 219, 220, 196, 231, 240, 230, 229, 230, 241, 231, 232, 239, 235, 236, 234, 234, 237, 233, 232, 233, 238, 242, 228, 229, 194, 222, 223, 222, 194, 221, 224, 225, 192, 228, 261, 227, 225, 226, 191, 191, 226, 262, 224, 193, 223, 195, 220, 221, 203, 204, 205, 124, 78, 123, 249, 250, 255, 576, 420, 421, 418, 419, 577, 420, 576, 419, 426, 427, 570, 422, 423, 574, 426, 571, 425, 422, 575, 421, 414, 579, 413, 412, 413, 579, 411, 412, 580, 417, 578, 416, 415, 416, 578, 414, 415, 579, 578, 417, 418, 424, 425, 572, 436, 437, 563, 435, 436, 564, 563, 437, 438, 423, 424, 573, 439, 440, 561, 441, 560, 440, 562, 438, 439, 434, 435, 565, 568, 429, 430, 431, 568, 430, 566, 433, 434, 432, 433, 566, 432, 567, 431, 428, 429, 569, 570, 427, 428, 559, 441, 442, 390, 620, 389, 388, 389, 622, 387, 388, 627, 392, 618, 391, 387, 629, 386, 390, 391, 619, 617, 392, 393, 381, 382, 634, 380, 381, 635, 383, 633, 382, 386, 630, 385, 385, 631, 384, 383, 384, 632, 380, 636, 379, 615, 393, 394, 407, 408, 581, 404, 405, 585, 406, 583, 405, 410, 411, 580, 409, 410, 580, 580, 408, 409, 406, 407, 582, 397, 398, 610, 614, 394, 395, 395, 396, 613, 402, 403, 591, 400, 401, 596, 402, 593, 401, 398, 399, 605, 404, 587, 403, 612, 396, 397, 442, 443, 557, 486, 510, 485, 484, 485, 511, 486, 487, 509, 506, 489, 490, 506, 507, 489, 489, 507, 488, 487, 488, 508, 512, 483, 484, 516, 478, 479, 478, 516, 477, 515, 479, 480, 482, 483, 513, 514, 481, 482, 514, 480, 481, 477, 517, 476, 475, 476, 517, 503, 492, 502, 502, 493, 501, 491, 503, 504, 495, 499, 500, 496, 498, 499, 494, 500, 501, 504, 505, 490, 493, 502, 492, 491, 492, 503, 493, 494, 501, 497, 498, 496, 496, 499, 495, 494, 495, 500, 491, 504, 490, 505, 506, 490, 454, 539, 453, 453, 540, 452, 455, 538, 454, 459, 534, 458, 536, 456, 457, 535, 457, 458, 456, 537, 455, 449, 547, 448, 445, 446, 554, 550, 447, 448, 542, 451, 452, 450, 451, 543, 449, 450, 545, 447, 552, 446, 444, 445, 555, 521, 470, 471, 470, 521, 469, 472, 520, 471, 518, 474, 475, 519, 473, 474, 473, 519, 472, 468, 469, 522, 528, 463, 464, 530, 461, 462, 462, 463, 529, 467, 468, 523, 466, 467, 524, 466, 525, 465, 527, 464, 465, 461, 531, 460, 533, 459, 460, 443, 444, 556, 400, 599, 399, 288, 292, 293, 289, 291, 292, 287, 293, 294, 298, 781, 297, 286, 294, 295, 295, 296, 285, 284, 296, 297, 287, 294, 286, 285, 296, 284, 295, 285, 286, 290, 291, 289, 289, 292, 288, 287, 288, 293, 297, 781, 284, 283, 284, 781, 308, 309, 314, 315, 680, 308, 313, 309, 310, 314, 309, 313, 312, 313, 310, 311, 312, 310, 680, 307, 308, 303, 304, 684, 300, 301, 689, 301, 302, 687, 307, 681, 306, 320, 675, 319, 305, 306, 682, 305, 683, 304, 308, 314, 315, 299, 780, 298, 262, 227, 261, 260, 245, 259, 243, 260, 261, 796, 266, 267, 263, 264, 189, 265, 188, 264, 263, 190, 262, 253, 254, 251, 251, 252, 253, 255, 250, 254, 247, 257, 258, 257, 248, 256, 256, 249, 255, 258, 259, 246, 254, 250, 251, 786, 278, 279, 789, 276, 277, 277, 278, 787, 282, 283, 782, 784, 280, 281, 282, 783, 281, 785, 279, 280, 793, 270, 271, 269, 794, 268, 270, 793, 269, 791, 273, 274, 792, 272, 273, 272, 793, 271, 791, 274, 275, 275, 276, 790, 795, 267, 268, 300, 778, 299, 357, 358, 355, 355, 356, 357, 358, 643, 355, 361, 643, 360, 359, 360, 643, 358, 359, 643, 361, 362, 643, 644, 350, 351, 350, 644, 349, 352, 644, 351, 354, 355, 643, 354, 643, 353, 644, 352, 353, 348, 349, 645, 362, 363, 643, 373, 639, 372, 372, 640, 371, 374, 639, 373, 376, 638, 375, 374, 375, 639, 370, 371, 640, 376, 377, 638, 642, 365, 366, 365, 643, 364, 642, 366, 367, 347, 348, 645, 368, 369, 641, 368, 641, 367, 641, 369, 370, 643, 363, 364, 377, 378, 637, 653, 328, 329, 327, 655, 326, 653, 327, 328, 652, 329, 330, 648, 340, 341, 340, 649, 339, 652, 330, 331, 677, 318, 319, 678, 317, 318, 317, 679, 316, 323, 324, 667, 322, 672, 321, 322, 323, 670, 321, 674, 320, 660, 325, 326, 647, 342, 343, 648, 341, 342, 647, 343, 344, 345, 346, 646, 344, 345, 646, 645, 346, 347, 379, 636, 378, 334, 651, 333, 333, 651, 332, 334, 335, 650, 337, 338, 649, 650, 336, 337, 336, 650, 335, 339, 649, 338, 651, 331, 332, 325, 665, 324, 315, 316, 680, 302, 303, 686, 187, 265, 266, 1018, 1019, 8]
        uniform token orientation = "rightHanded"
        point3f[] points = [(0.000035398843, -0.00021424341, 0), (0.00015561315, -0.00019534033, 0), (0.00027277332, -0.00016432873, 0), (0.00038643082, -0.00012159876, 0), (0.0004962351, -0.00006788362, 0), (0.00060195476, -0.0000042304346, 0), (0.0007034904, 0.00006804663, 0.00001809673), (0.00080087857, 0.00014742839, 0.000039098682), (0.0008942863, 0.00023226422, 0.000061421575), (0.0009839976, 0.0003208527, 0.000084601794), (0.0010703922, 0.00041152412, 0.00010819251), (0.0011539186, 0.00050271966, 0.00013178463), (0.0012350647, 0.000593062, 0.00015502442), (0.0013143271, 0.0006814134, 0.00017762672), (0.0013921815, 0.00076691655, 0.00019938344), (0.0014690582, 0.0008490172, 0.00022016696), (0.0015453219, 0.0009274663, 0.00023992844), (0.0016212586, 0.001002303, 0.0002586915), (0.0016970708, 0.0010738198, 0.00027654186), (0.0017728792, 0.0011425131, 0.0002936139), (0.0018487314, 0.0012090238, 0.00031007506), (0.0019246172, 0.0012740716, 0.00032610932), (0.002000487, 0.0013383905, 0.00034190097), (0.0020762722, 0.0014026671, 0.00035761998), (0.0021519077, 0.0014674898, 0.00037340962), (0.0022273508, 0.00153331, 0.00038937785), (0.0023025975, 0.0016004201, 0.0004055923), (0.0023776933, 0.001668946, 0.00042207955), (0.0024527395, 0.001738858, 0.00043882834), (0.0025278924, 0.0018099941, 0.00045579602), (0.002603357, 0.0018820969, 0.00047291783), (0.002679375, 0.0019548552, 0.0004901175), (0.0027562086, 0.0020279512, 0.00050731853), (0.002834123, 0.0021011028, 0.000524454), (0.0029133658, 0.0021741027, 0.00054147566), (0.0029941495, 0.0022468446, 0.0005583596), (0.003076634, 0.0023193392, 0.0005751092), (0.0031609156, 0.002391714, 0.00059175474), (0.00324702, 0.0024642008, 0.0006083496), (0.0033349001, 0.0025371115, 0.0006249645), (0.00342444, 0.0026108024, 0.0006416788), (0.0035154652, 0.0026856347, 0.0006585716), (0.0036077558, 0.0027619337, 0.0006757121), (0.003701063, 0.0028399506, 0.00069315155), (0.0037951279, 0.0029198315, 0.0007109169), (0.0038896983, 0.0030015993, 0.0007290067), (0.003984547, 0.0030851448, 0.0007473907), (0.0040794844, 0.0031702342, 0.0007660114), (0.0041743666, 0.0032565293, 0.0007847902), (0.004269102, 0.0033436178, 0.0008036336), (0.004363652, 0.00343105, 0.0008224425), (0.0044580246, 0.0035183833, 0.00084112125), (0.0045522717, 0.0036052193, 0.00085958606), (0.004646474, 0.0036912423, 0.0008777722), (0.004740735, 0.003776244, 0.0008956393), (0.004835169, 0.003860138, 0.0009131731), (0.004929891, 0.003942961, 0.00093038526), (0.0050250106, 0.004024861, 0.0009473102), (0.005120628, 0.0041060736, 0.0009639995), (0.0052168313, 0.0041868878, 0.0009805145), (0.0053136973, 0.0042676083, 0.0009969184), (0.0054112924, 0.004348516, 0.0010132684), (0.005509677, 0.0044298335, 0.0010296083), (0.005608906, 0.004511695, 0.0010459636), (0.0057090335, 0.0045941286, 0.0010623382), (0.0058101085, 0.0046770526, 0.001078714), (0.0059121745, 0.004760284, 0.0010950536), (0.006015266, 0.0048435554, 0.0011113042), (0.0061193984, 0.0049265497, 0.001127404), (0.0062245666, 0.0050089336, 0.0011432903), (0.0063307327, 0.0050903987, 0.0011589061), (0.006437822, 0.005170696, 0.0011742077), (0.006545719, 0.0052496707, 0.0011891695), (0.0066542705, 0.005327281, 0.0012037882), (0.0067632818, 0.005403611, 0.0012180839), (0.00687253, 0.005478865, 0.0012320989), (0.006981772, 0.005553357, 0.0012458945), (0.0070907576, 0.005627483, 0.0012595458), (0.007199243, 0.005701692, 0.0012731361), (0.0073070065, 0.005776447, 0.0012867491), (0.007413858, 0.005852192, 0.0013004636), (0.00751965, 0.005929321, 0.0013143469), (0.0076242797, 0.0060081515, 0.0013284516), (0.0077276905, 0.006088912, 0.0013428123), (0.0078298645, 0.006171738, 0.0013574468), (0.007930811, 0.0062566763, 0.0013723562), (0.008030557, 0.0063437033, 0.0013875291), (0.008129128, 0.006432745, 0.0014029451), (0.008226537, 0.0065237014, 0.00141858), (0.008322767, 0.0066164727, 0.0014344093), (0.008417765, 0.00671098, 0.0014504133), (0.008511439, 0.006807181, 0.001466578), (0.008603658, 0.006905079, 0.0014828973), (0.008694259, 0.0070047183, 0.001499372), (0.008783063, 0.0071061794, 0.0015160079), (0.0088698855, 0.00720956, 0.0015328135), (0.0089545585, 0.007314957, 0.0015497963), (0.009036941, 0.0074224444, 0.0015669594), (0.009116943, 0.007532053, 0.0015842986), (0.009194518, 0.0076437565, 0.0016018002), (0.009269684, 0.0077574626, 0.0016194407), (0.009342502, 0.007873014, 0.0016371869), (0.0094130775, 0.007990195, 0.0016549976), (0.009481538, 0.008108752, 0.0016728269), (0.009548016, 0.008228407, 0.0016906277), (0.009612624, 0.008348893, 0.0017083554), (0.00967544, 0.008469974, 0.0017259716), (0.009736491, 0.008591461, 0.0017434473), (0.009795742, 0.008713243, 0.0017607642), (0.009853092, 0.008835281, 0.001777916), (0.0099083865, 0.008957618, 0.001794907), (0.00996143, 0.009080361, 0.001811751), (0.010012005, 0.009203671, 0.0018284676), (0.010059903, 0.009327731, 0.0018450785), (0.010104944, 0.009452729, 0.0018616046), (0.010147012, 0.009578819, 0.0018780616), (0.010186069, 0.009706108, 0.0018944573), (0.010222172, 0.009834627, 0.0019107899), (0.010255479, 0.009964328, 0.0019270472), (0.0102862455, 0.010095082, 0.0019432071), (0.010314804, 0.010226684, 0.0019592394), (0.010341549, 0.010358868, 0.0019751084), (0.010366906, 0.010491339, 0.0019907763), (0.010391295, 0.010623789, 0.0020062062), (0.010415107, 0.010755935, 0.002021366), (0.010438669, 0.010887539, 0.0020362309), (0.010462226, 0.011018431, 0.0020507849), (0.010485932, 0.0111485245, 0.002065023), (0.01050984, 0.011277824, 0.0020789497), (0.010533918, 0.011406418, 0.0020925784), (0.010558059, 0.011534473, 0.0021059304), (0.01058211, 0.011662215, 0.0021190313), (0.010605898, 0.011789907, 0.0021319091), (0.010629258, 0.011917822, 0.0021445914), (0.01065206, 0.012046224, 0.0021571026), (0.010674232, 0.012175347, 0.002169462), (0.010695767, 0.012305369, 0.002181683), (0.0107167335, 0.01243641, 0.002193772), (0.010737266, 0.012568523, 0.0022057286), (0.01075755, 0.012701694, 0.0022175456), (0.010777801, 0.012835847, 0.0022292114), (0.010798242, 0.012970858, 0.0022407102), (0.010819075, 0.013106562, 0.0022520241), (0.010840454, 0.013242769, 0.0022631339), (0.010862474, 0.013379275, 0.002274021), (0.010885151, 0.013515875, 0.0022846684), (0.010908425, 0.013652371, 0.0022950605), (0.010932164, 0.013788583, 0.0023051847), (0.01095618, 0.013924346, 0.0023150311), (0.010980252, 0.014059525, 0.0023245928), (0.011004153, 0.014194007, 0.002333865), (0.011027678, 0.014327713, 0.0023428467), (0.011050673, 0.014460598, 0.002351539), (0.011073058, 0.01459265, 0.0023599458), (0.011094843, 0.0147239035, 0.0023680734), (0.011116141, 0.014854431, 0.0023759305), (0.011137165, 0.014984353, 0.0023835278), (0.01115822, 0.015113835, 0.002390878), (0.011179683, 0.015243084, 0.0023979943), (0.011201987, 0.01537234, 0.0024048907), (0.01122559, 0.015501867, 0.002411581), (0.011250941, 0.015631938, 0.002418077), (0.011278461, 0.015762823, 0.0024243887), (0.01130851, 0.01589476, 0.002430523), (0.01134137, 0.016027948, 0.0024364835), (0.011377225, 0.016162528, 0.0024422691), (0.011416161, 0.01629857, 0.0024478757), (0.0114581585, 0.01643607, 0.0024532953), (0.011503098, 0.016574949, 0.0024585172), (0.011550774, 0.01671506, 0.002463529), (0.011600908, 0.01685621, 0.0024683173), (0.01165317, 0.01699817, 0.0024728696), (0.0117072, 0.017140705, 0.0024771744), (0.011762629, 0.0172836, 0.0024812229), (0.011819104, 0.017426675, 0.0024850084), (0.011876305, 0.017569816, 0.0024885277), (0.01193397, 0.017712982, 0.002491779), (0.011991908, 0.017856209, 0.0024947634), (0.012050007, 0.017999612, 0.0024974826), (0.012108246, 0.01814337, 0.0024999387), (0.012166695, 0.018287715, 0.0025021331), (0.012225504, 0.018432891, 0.0025040656), (0.012284902, 0.018579153, 0.002505734), (0.01234517, 0.018726718, 0.0025071346), (0.012406622, 0.018875757, 0.0025082605), (0.012469577, 0.019026369, 0.0025091039), (0.012534328, 0.019178579, 0.002509656), (0.012601111, 0.019332323, 0.0025099067), (0.012670075, 0.019487474, 0.0025098475), (0.012741255, 0.019643836, 0.0025094708), (0.0128145525, 0.019801179, 0.0025087702), (0.012889727, 0.01995925, 0.002507742), (0.01296639, 0.020117804, 0.0025063842), (0.0130440155, 0.020276621, 0.0025046961), (0.013121963, 0.02043552, 0.0025026794), (0.013199501, 0.020594368, 0.002500335), (0.013275848, 0.020753087, 0.0024976651), (0.01335021, 0.020911638, 0.0024946714), (0.013421826, 0.021070017, 0.0024913554), (0.013490001, 0.02122823, 0.0024877174), (0.013554143, 0.021386284, 0.0024837593), (0.01361379, 0.02154416, 0.002479482), (0.01366862, 0.021701803, 0.0024748887), (0.013718453, 0.021859108, 0.002469984), (0.013763248, 0.02201592, 0.002464776), (0.013803076, 0.022172047, 0.0024592741), (0.013838105, 0.022327257, 0.0024534918), (0.013868563, 0.022481313, 0.0024474442), (0.013894711, 0.02263398, 0.002441148), (0.013916817, 0.022785064, 0.0024346206), (0.013935136, 0.02293442, 0.0024278776), (0.013949898, 0.023081983, 0.0024209325), (0.013961301, 0.023227768, 0.0024137949), (0.013969524, 0.02337188, 0.002406469), (0.01397473, 0.023514504, 0.002398955), (0.01397709, 0.023655893, 0.0023912466), (0.0139767965, 0.023796348, 0.0023833339), (0.013974083, 0.023936192, 0.0023752027), (0.013969229, 0.024075737, 0.002366837), (0.013962565, 0.024215268, 0.0023582217), (0.0139544625, 0.024355011, 0.0023493413), (0.013945319, 0.024495117, 0.0023401852), (0.013935529, 0.024635654, 0.002330747), (0.0139254555, 0.024776606, 0.0023210251), (0.013915395, 0.024917876, 0.0023110246), (0.0139055485, 0.025059309, 0.0023007554), (0.013895992, 0.025200693, 0.002290232), (0.013886668, 0.025341801, 0.002279473), (0.0138773825, 0.025482396, 0.0022684983), (0.013867818, 0.025622264, 0.002257328), (0.013857561, 0.025761217, 0.0022459815), (0.013846141, 0.025899116, 0.002234476), (0.013833079, 0.026035862, 0.002222825), (0.0138179315, 0.026171401, 0.00221104), (0.013800347, 0.02630572, 0.002199128), (0.013780097, 0.026438823, 0.0021870953), (0.013757103, 0.026570732, 0.0021749465), (0.013731451, 0.026701463, 0.0021626854), (0.013703376, 0.026831025, 0.0021503177), (0.013673241, 0.026959402, 0.0021378505), (0.013641494, 0.027086558, 0.0021252935), (0.013608614, 0.027212435, 0.0021126587), (0.013575056, 0.02733696, 0.0020999594), (0.013541193, 0.027460054, 0.002087211), (0.013507273, 0.027581638, 0.0020744281), (0.013473388, 0.027701654, 0.0020616243), (0.013439451, 0.027820067, 0.0020488107), (0.013405215, 0.027936874, 0.0020359948), (0.01337029, 0.028052108, 0.0020231802), (0.013334194, 0.02816584, 0.0020103662), (0.013296411, 0.028278159, 0.0019975486), (0.013256455, 0.028389188, 0.0019847197), (0.013213932, 0.028499046, 0.0019718707), (0.0131686, 0.028607856, 0.0019589919), (0.013120409, 0.028715722, 0.0019460754), (0.013069519, 0.028822726, 0.0019331153), (0.013016296, 0.028928911, 0.0019201093), (0.012961291, 0.029034298, 0.0019070586), (0.012905191, 0.029138872, 0.0018939683), (0.012848757, 0.029242596, 0.0018808463), (0.012792752, 0.02934542, 0.0018677025), (0.012737868, 0.029447297, 0.0018545465), (0.012684664, 0.029548192, 0.0018413863), (0.012633514, 0.029648103, 0.0018282266), (0.012584576, 0.029747063, 0.0018150662), (0.012537792, 0.029845158, 0.0018018978), (0.012492903, 0.02994252, 0.0017887059), (0.012449492, 0.030039337, 0.0017754681), (0.012407045, 0.03013584, 0.001762154), (0.012365021, 0.0302323, 0.0017487272), (0.012322925, 0.03032901, 0.0017351464), (0.0122803785, 0.03042627, 0.0017213677), (0.012237165, 0.030524379, 0.0017073466), (0.012193271, 0.03062361, 0.0016930405), (0.012148886, 0.030724198, 0.0016784103), (0.012104389, 0.030826328, 0.0016634237), (0.012060306, 0.03093013, 0.001648056), (0.012017245, 0.031035658, 0.0016322916), (0.011975829, 0.031142905, 0.0016161251), (0.011936609, 0.03125179, 0.0015995618), (0.0118999975, 0.031362165, 0.0015826173), (0.011866212, 0.03147383, 0.0015653167), (0.011835229, 0.031586543, 0.0015476935), (0.011806778, 0.031700015, 0.0015297877), (0.011780352, 0.03181395, 0.0015116434), (0.011755254, 0.03192806, 0.0014933061), (0.011730653, 0.032042067, 0.0014748196), (0.01170567, 0.032155745, 0.0014562221), (0.0116794575, 0.032268915, 0.0014375439), (0.011651291, 0.032381486, 0.001418803), (0.011620632, 0.03249345, 0.0014000033), (0.011587193, 0.032604896, 0.0013811326), (0.011550961, 0.032716006, 0.0013621611), (0.011512197, 0.03282706, 0.0013430421), (0.011471418, 0.03293842, 0.0013237135), (0.011429338, 0.0330505, 0.0013041003), (0.011386806, 0.033163756, 0.0012841192), (0.011344718, 0.033278648, 0.0012636834), (0.0113039315, 0.0333956, 0.0012427086), (0.011265189, 0.03351498, 0.001221119), (0.011229049, 0.033637065, 0.001198853), (0.0111958375, 0.033762015, 0.0011758688), (0.011165627, 0.033889852, 0.0011521474), (0.011138236, 0.034020472, 0.001127696), (0.011113257, 0.03415363, 0.0011025469), (0.0110901045, 0.03428896, 0.0010767564), (0.011068073, 0.03442602, 0.0010504), (0.011046416, 0.0345643, 0.0010235669), (0.011024408, 0.03470329, 0.0009963528), (0.011001418, 0.034842487, 0.00096885057), (0.010976957, 0.034981485, 0.00094114366), (0.010950716, 0.035119962, 0.00091329723), (0.010922587, 0.035257723, 0.0008853531), (0.010892648, 0.03539472, 0.0008573254), (0.010861158, 0.035531044, 0.0008292001), (0.010828507, 0.035666898, 0.0008009363), (0.010795175, 0.035802603, 0.00077247096), (0.010761683, 0.03593853, 0.0007437252), (0.010728538, 0.036075074, 0.000714613), (0.010696191, 0.036212616, 0.00068505004), (0.010665, 0.036351465, 0.00065496285), (0.010635208, 0.03649184, 0.0006242965), (0.010606926, 0.036633845, 0.00059302076), (0.010580141, 0.03677745, 0.0005611336), (0.010554725, 0.036922496, 0.00052866177), (0.010530459, 0.03706871, 0.0004956582), (0.010507054, 0.037215743, 0.00046219747), (0.010484187, 0.037363194, 0.00042836784), (0.010461523, 0.037510645, 0.00039426296), (0.010438745, 0.03765771, 0.00035997233), (0.01041557, 0.037804086, 0.0003255727), (0.010391767, 0.037949543, 0.0002911205), (0.010367163, 0.038093973, 0.00025664674), (0.010341646, 0.03823739, 0.00022215475), (0.010315164, 0.03837991, 0.00018762062), (0.010287718, 0.03852175, 0.0001529968), (0.0102593545, 0.03866319, 0.00011821797), (0.0102301575, 0.03880454, 0.00008320885), (0.010200238, 0.038946107, 0.000047892696), (0.010169721, 0.039088167, 0.00001219987), (0.010138742, 0.039230924, -0.000023924655), (0.01010743, 0.0393745, -0.000060515544), (0.010075905, 0.03951892, -0.000097583674), (0.010044265, 0.039664112, -0.00013511535), (0.010012576, 0.039809924, -0.00017307405), (0.00998087, 0.039956126, -0.00021140458), (0.009949135, 0.04010246, -0.00025003878), (0.009917309, 0.040248644, -0.00028890246), (0.009885281, 0.040394403, -0.00032792223), (0.009852895, 0.040539507, -0.00036703193), (0.009819953, 0.04068377, -0.00040617763), (0.009786226, 0.040827066, -0.0004453208), (0.00975147, 0.04096934, -0.00048443925), (0.009715439, 0.041110575, -0.0005235264), (0.009677908, 0.041250825, -0.00056258804), (0.009638686, 0.041390155, -0.0006016387), (0.009597634, 0.041528646, -0.0006406963), (0.009554679, 0.041666374, -0.00067977794), (0.009509816, 0.041803394, -0.0007188953), (0.009463112, 0.04193973, -0.00075805234), (0.0094147, 0.04207538, -0.00079724356), (0.009364763, 0.042210303, -0.00083645486), (0.009313523, 0.042344444, -0.00087566546), (0.009261212, 0.04247773, -0.00091485126), (0.00920806, 0.042610105, -0.0009539891), (0.009154266, 0.042741522, -0.000993061), (0.009099988, 0.042871963, -0.0010320581), (0.00904533, 0.043001454, -0.0010709836), (0.008990335, 0.043130074, -0.0011098541), (0.008934991, 0.043257926, -0.0011486995), (0.0088792415, 0.043385163, -0.0011875615), (0.008822992, 0.043511957, -0.0012264899), (0.00876614, 0.043638483, -0.0012655384), (0.008708582, 0.043764923, -0.0013047602), (0.008650239, 0.043891426, -0.0013442028), (0.008591061, 0.044018112, -0.0013839037), (0.008531047, 0.044145055, -0.0014238878), (0.008470231, 0.04427229, -0.0014641657), (0.008408686, 0.044399794, -0.0015047333), (0.008346509, 0.044527516, -0.0015455736), (0.008283805, 0.044655364, -0.0015866596), (0.008220666, 0.04478323, -0.0016279578), (0.008157162, 0.044911016, -0.001669433), (0.008093318, 0.045038614, -0.0017110524), (0.008029115, 0.04516595, -0.0017527895), (0.007964486, 0.045292974, -0.0017946272), (0.007899326, 0.045419674, -0.0018365599), (0.007833507, 0.045546077, -0.0018785939), (0.007766899, 0.045672238, -0.0019207482), (0.0076993983, 0.04579825, -0.0019630513), (0.007630951, 0.045924228, -0.0020055415), (0.007561575, 0.0460503, -0.0020482629), (0.007491379, 0.04617661, -0.0020912637), (0.007420566, 0.046303295, -0.002134594), (0.0073494324, 0.0464305, -0.0021783034), (0.0072783506, 0.046558354, -0.0022224407), (0.007207747, 0.04668698, -0.002267051), (0.007138064, 0.046816487, -0.0023121757), (0.007069725, 0.046946965, -0.002357851), (0.007003092, 0.047078483, -0.0024041065), (0.0069384305, 0.047211092, -0.002450964), (0.0068758777, 0.047344804, -0.0024984342), (0.006815427, 0.0474796, -0.002546516), (0.006756919, 0.04761542, -0.0025951928), (0.006700052, 0.047752157, -0.0026444308), (0.0066444036, 0.04788965, -0.002694178), (0.0065894667, 0.048027698, -0.0027443632), (0.006534689, 0.048166048, -0.0027948967), (0.006479523, 0.04830441, -0.0028456743), (0.006423472, 0.04844247, -0.0028965804), (0.0063661304, 0.048579916, -0.002947495), (0.006307219, 0.048716433, -0.0029983006), (0.0062466026, 0.048851755, -0.0030488898), (0.0061842976, 0.048985656, -0.0030991745), (0.0061204606, 0.049117994, -0.0031490913), (0.0060553695, 0.049248703, -0.0031986078), (0.0059893862, 0.049377803, -0.0032477255), (0.005922919, 0.04950541, -0.0032964793), (0.005856377, 0.04963171, -0.0033449344), (0.0057901284, 0.049756955, -0.003393181), (0.0057244645, 0.049881432, -0.003441325), (0.005659573, 0.050005432, -0.0034894783), (0.005595521, 0.050129242, -0.003537748), (0.0055322573, 0.050253093, -0.003586226), (0.005469617, 0.05037716, -0.0036349802), (0.0054073473, 0.050501537, -0.0036840485), (0.005345136, 0.050626233, -0.0037334363), (0.0052826437, 0.050751176, -0.003783117), (0.0052195424, 0.05087623, -0.0038330364), (0.005155545, 0.05100121, -0.003883121), (0.005090433, 0.05112591, -0.0039332886), (0.005024073, 0.051250137, -0.003983458), (0.004956426, 0.05137373, -0.0040335623), (0.0048875446, 0.051496588, -0.0040835566), (0.004817561, 0.051618684, -0.0041334284), (0.004746667, 0.05174008, -0.004183198), (0.0046750945, 0.051860914, -0.0042329184), (0.004603085, 0.05198139, -0.0042826743), (0.0045308676, 0.052101765, -0.0043325685), (0.0044586374, 0.05222231, -0.004382714), (0.004386542, 0.052343287, -0.004433221), (0.00431467, 0.05246491, -0.004484182), (0.0042430535, 0.05258733, -0.0045356634), (0.004171673, 0.052710608, -0.004587692), (0.00410047, 0.052834697, -0.0046402565), (0.004029361, 0.05295947, -0.0046933014), (0.00395826, 0.053084694, -0.004746735), (0.003887092, 0.053210087, -0.0048004375), (0.003815809, 0.05333534, -0.0048542726), (0.0037444024, 0.053460132, -0.0049081054), (0.0036729083, 0.053584192, -0.0049618133), (0.0036014079, 0.05370731, -0.0050153043), (0.003530021, 0.053829387, -0.0050685275), (0.0034588985, 0.053950418, -0.0051214793), (0.0033882053, 0.05407053, -0.005174208), (0.0033181068, 0.054189947, -0.0052268095), (0.0032487502, 0.054308977, -0.0052794185), (0.0031802503, 0.054427993, -0.005332195), (0.0031126752, 0.05454737, -0.005385311), (0.0030460367, 0.054667465, -0.0054389243), (0.0029802856, 0.054788563, -0.005493168), (0.002915309, 0.054910854, -0.005548128), (0.0028509367, 0.055034373, -0.0056038313), (0.0027869474, 0.05515902, -0.0056602363), (0.002723081, 0.055284537, -0.005717228), (0.0026590538, 0.05541051, -0.0057746232), (0.0025945744, 0.055536393, -0.0058321753), (0.0025293613, 0.055661544, -0.0058895876), (0.0024631594, 0.055785257, -0.005946532), (0.0023957556, 0.055906806, -0.0060026655), (0.0023269923, 0.05602549, -0.006057652), (0.0022567774, 0.05614066, -0.0061111795), (0.0021850902, 0.056251775, -0.0061629782), (0.0021119853, 0.056358412, -0.0062128324), (0.002037588, 0.056460284, -0.00626059), (0.001962089, 0.056557246, -0.0063061663), (0.0018857325, 0.056649294, -0.006349542), (0.0018088009, 0.05673656, -0.00639076), (0.0017315965, 0.056819268, -0.0064299135), (0.0016544213, 0.056897733, -0.0064671356), (0.0015775549, 0.056972314, -0.0065025873), (0.001501234, 0.057043396, -0.0065364395), (0.0014256333, 0.057111353, -0.006568861), (0.00135085, 0.057176515, -0.006600005), (0.001276893, 0.057239164, -0.0066299955), (0.0012036777, 0.057299487, -0.0066589196), (0.0011310278, 0.05735758, -0.006686817), (0.001058683, 0.05741343, -0.006713677), (0.0009863137, 0.057466913, -0.006739435), (0.0009135408, 0.057517786, -0.0067639686), (0.0008399603, 0.0575657, -0.0067871055), (0.0007651704, 0.05761021, -0.0068086223), (0.00068879884, 0.05765078, -0.0068282564), (0.00061053, 0.057686813, -0.0068457127), (0.0005301281, 0.057717673, -0.0068606758), (0.00044745524, 0.057742715, -0.0068728263), (0.00036248428, 0.05776131, -0.0068818545), (0.00027530317, 0.05777289, -0.006887477), (0.00018611267, 0.057776958, -0.006889453), (0.00009521617, 0.057773147, -0.0068876017), (0.0000030032686, 0.057761222, -0.0068818117), (-0.00009007227, 0.05774112, -0.0068720523), (-0.00018351825, 0.05771294, -0.0068583796), (-0.0002768318, 0.057676956, -0.006840936), (-0.0003695273, 0.05763361, -0.006819944), (-0.00046116245, 0.05758348, -0.0067956974), (-0.00055136124, 0.057527266, -0.006768544), (-0.0006398319, 0.057465743, -0.006738871), (-0.0007263793, 0.057399713, -0.006707077), (-0.00081091106, 0.057329975, -0.0066735563), (-0.00089343725, 0.057257272, -0.0066386745), (-0.0009740638, 0.057182252, -0.00660275), (-0.0010529807, 0.057105448, -0.0065660416), (-0.0011304446, 0.057027236, -0.006528737), (-0.0012067596, 0.056947853, -0.006490953), (-0.0012822545, 0.0568674, -0.006452736), (-0.00135726, 0.056785826, -0.0064140726), (-0.0014320874, 0.056703012, -0.006374904), (-0.0015070084, 0.05661876, -0.0063351416), (-0.0015822398, 0.056532852, -0.0062946896), (-0.0016579318, 0.056445092, -0.0062534604), (-0.001734163, 0.056355346, -0.0062113963), (-0.0018109403, 0.05626356, -0.00616848), (-0.0018882051, 0.056169793, -0.0061247447), (-0.001965845, 0.056074217, -0.006080279), (-0.0020437106, 0.05597712, -0.0060352217), (-0.002121634, 0.055878885, -0.0059897546), (-0.0021994521, 0.05577996, -0.00594409), (-0.0022770253, 0.055680826, -0.0058984514), (-0.0023542584, 0.055581965, -0.005853059), (-0.002431114, 0.0554838, -0.005808106), (-0.0025076221, 0.055386674, -0.0057637473), (-0.0025838814, 0.05529081, -0.0057200817), (-0.0026600542, 0.055196304, -0.0056771445), (-0.0027363535, 0.055103093, -0.005634904), (-0.0028130224, 0.05501097, -0.005593263), (-0.0028903093, 0.0549196, -0.0055520674), (-0.0029684415, 0.054828547, -0.005511117), (-0.0030475957, 0.0547373, -0.0054701823), (-0.0031278748, 0.05464531, -0.0054290206), (-0.0032092866, 0.05455205, -0.005387396), (-0.003291734, 0.054457027, -0.005345098), (-0.0033750108, 0.054359842, -0.005301953), (-0.003458812, 0.054260198, -0.0052578375), (-0.0035427508, 0.054157924, -0.0052126865), (-0.0036263876, 0.054052975, -0.0051664915), (-0.003709262, 0.053945445, -0.0051193004), (-0.0037909322, 0.053835526, -0.0050712097), (-0.0038710115, 0.053723503, -0.0050223535), (-0.0039492017, 0.053609725, -0.0049728914), (-0.004025321, 0.053494565, -0.004922992), (-0.0040993188, 0.053378396, -0.0048728245), (-0.0041712807, 0.053261567, -0.00482254), (-0.0042414204, 0.05314437, -0.0047722682), (-0.0043100584, 0.05302703, -0.0047221067), (-0.0043775938, 0.0529097, -0.00467212), (-0.004444465, 0.05279245, -0.004622338), (-0.004511111, 0.05267528, -0.0045727626), (-0.004577931, 0.052558143, -0.004523372), (-0.0046452507, 0.05244095, -0.0044741267), (-0.0047132983, 0.052323584, -0.0044249822), (-0.004782189, 0.052205943, -0.004375895), (-0.0048519266, 0.052087944, -0.00432683), (-0.0049224123, 0.05196953, -0.004277768), (-0.004993472, 0.0518507, -0.0042287083), (-0.0050648847, 0.051731497, -0.0041796723), (-0.00513642, 0.05161202, -0.0041307), (-0.0052078757, 0.0514924, -0.0040818485), (-0.0052791093, 0.05137281, -0.004033188), (-0.005350062, 0.051253438, -0.003984793), (-0.0054207733, 0.051134475, -0.0039367406), (-0.0054913796, 0.051016096, -0.0038891002), (-0.005562105, 0.05089846, -0.0038419298), (-0.005633234, 0.050781675, -0.0037952731), (-0.005705081, 0.050665814, -0.0037491543), (-0.0057779513, 0.05055091, -0.00370358), (-0.0058521032, 0.050436936, -0.0036585385), (-0.005927714, 0.05032384, -0.0036140028), (-0.0060048536, 0.050211526, -0.0035699347), (-0.00608347, 0.05009989, -0.003526288), (-0.0061633866, 0.049988814, -0.0034830142), (-0.0062443186, 0.04987818, -0.0034400646), (-0.0063258926, 0.049767874, -0.0033973958), (-0.006407685, 0.049657807, -0.0033549708), (-0.00648926, 0.049547903, -0.0033127593), (-0.0065702116, 0.049438104, -0.0032707392), (-0.0066502015, 0.04932837, -0.0032288935), (-0.006728989, 0.049218662, -0.0031872084), (-0.0068064486, 0.049108945, -0.003145671), (-0.006882577, 0.04899918, -0.0031042653), (-0.006957482, 0.048889313, -0.003062971), (-0.007031364, 0.04877926, -0.00302176), (-0.007104481, 0.048668932, -0.0029805966), (-0.007177115, 0.04855821, -0.0029394377), (-0.0072495285, 0.048446946, -0.002898234), (-0.007321931, 0.048334997, -0.0028569323), (-0.0073944493, 0.048222214, -0.00281548), (-0.00746711, 0.048108447, -0.0027738283), (-0.007539832, 0.047993574, -0.0027319358), (-0.0076124375, 0.0478775, -0.0026897728), (-0.0076846713, 0.047760166, -0.002647323), (-0.0077562314, 0.047641557, -0.0026045868), (-0.007826805, 0.0475217, -0.0025615792), (-0.007896109, 0.04740066, -0.0025183307), (-0.007963919, 0.047278546, -0.0024748833), (-0.008030106, 0.047155485, -0.0024312886), (-0.008094649, 0.047031626, -0.0023876016), (-0.008157636, 0.046907116, -0.0023438781), (-0.0082192635, 0.046782088, -0.0023001693), (-0.008279809, 0.046656664, -0.0022565175), (-0.008339604, 0.04653093, -0.0022129556), (-0.008398996, 0.046404935, -0.0021695027), (-0.008458309, 0.046278697, -0.0021261654), (-0.00851781, 0.0461522, -0.0020829388), (-0.0085776765, 0.046025395, -0.0020398076), (-0.00863798, 0.04589821, -0.0019967495), (-0.008698672, 0.04577056, -0.0019537378), (-0.008759597, 0.045642354, -0.0019107452), (-0.008820505, 0.04551351, -0.001867746), (-0.008881074, 0.045383956, -0.0018247189), (-0.008940951, 0.04525363, -0.0017816478), (-0.008999779, 0.045122493, -0.0017385226), (-0.009057235, 0.04499051, -0.0016953385), (-0.00911306, 0.044857677, -0.0016520955), (-0.00916708, 0.04472398, -0.0016087961), (-0.009219215, 0.044589426, -0.0015654442), (-0.009269482, 0.04445401, -0.0015220436), (-0.009317989, 0.044317722, -0.0014785976), (-0.009364916, 0.044180565, -0.001435108), (-0.009410495, 0.044042524, -0.0013915766), (-0.009454986, 0.04390359, -0.0013480064), (-0.009498658, 0.043763775, -0.0013044035), (-0.009541761, 0.0436231, -0.00126078), (-0.009584526, 0.043481614, -0.0012171565), (-0.009627147, 0.04333941, -0.0011735639), (-0.009669786, 0.04319661, -0.0011300448), (-0.009712582, 0.043053392, -0.0010866546), (-0.009755657, 0.042909965, -0.0010434599), (-0.009799131, 0.042766582, -0.0010005365), (-0.009843133, 0.04262352, -0.000957967), (-0.009887809, 0.042481072, -0.0009158357), (-0.009933325, 0.042339526, -0.00087422435), (-0.009979868, 0.042199157, -0.0008332071), (-0.010027631, 0.0420602, -0.00079284597), (-0.010076804, 0.041922837, -0.0007531873), (-0.01012755, 0.041787196, -0.0007142587), (-0.010179992, 0.04165334, -0.0006760682), (-0.010234185, 0.04152125, -0.0006386041), (-0.01029011, 0.041390862, -0.0006018373), (-0.010347655, 0.041262046, -0.0005657237), (-0.010406623, 0.041134633, -0.00053020875), (-0.0104667265, 0.041008428, -0.0004952319), (-0.0105276145, 0.040883224, -0.00046073127), (-0.0105888825, 0.04075883, -0.00042664845), (-0.010650107, 0.040635064, -0.00039293186), (-0.010710867, 0.040511787, -0.0003595397), (-0.01077078, 0.04038889, -0.00032644128), (-0.010829518, 0.04026631, -0.00029361725), (-0.010886832, 0.040144015, -0.00026105874), (-0.010942564, 0.040022008, -0.0002287652), (-0.010996649, 0.03990032, -0.00019674204), (-0.011049109, 0.039778985, -0.00016499759), (-0.011100044, 0.03965804, -0.0001335404), (-0.011149616, 0.03953752, -0.000102376835), (-0.011198027, 0.039417442, -0.00007150939), (-0.011245499, 0.0392978, -0.000040935844), (-0.011292255, 0.03917858, -0.000010649204), (-0.011338498, 0.039059747, 0.000019361441), (-0.011384413, 0.038941246, 0.000049109534), (-0.011430142, 0.038823035, 0.00007860923), (-0.011475804, 0.038705062, 0.00010787347), (-0.011521481, 0.03858729, 0.00013691223), (-0.011567238, 0.038469702, 0.00016573118), (-0.011613124, 0.0383523, 0.00019433079), (-0.011659189, 0.038235106, 0.00022270625), (-0.011705485, 0.03811816, 0.0002508479), (-0.011752075, 0.03800153, 0.00027874214), (-0.011799034, 0.037885286, 0.000306373), (-0.011846448, 0.037769508, 0.0003337235), (-0.011894414, 0.037654273, 0.00036077722), (-0.011943032, 0.037539657, 0.0003875196), (-0.011992396, 0.03742572, 0.00041393886), (-0.012042593, 0.037312515, 0.0004400263), (-0.012093699, 0.037200075, 0.00046577645), (-0.012145769, 0.03708843, 0.00049118634), (-0.012198848, 0.0369776, 0.000516255), (-0.012252965, 0.0368676, 0.0005409823), (-0.01230814, 0.03675845, 0.000565368), (-0.012364392, 0.036650162, 0.0005894111), (-0.012421739, 0.03654277, 0.00061310927), (-0.012480209, 0.03643631, 0.0006364582), (-0.012539836, 0.03633082, 0.0006594522), (-0.012600669, 0.036226355, 0.00068208395), (-0.012662768, 0.036122974, 0.0007043452), (-0.012726204, 0.036020733, 0.0007262269), (-0.012791049, 0.035919707, 0.0007477197), (-0.012857385, 0.03581996, 0.0007688137), (-0.012925294, 0.035721563, 0.00078949815), (-0.012994859, 0.0356246, 0.00080976094), (-0.013066168, 0.03552917, 0.0008295877), (-0.013139318, 0.035435382, 0.0008489611), (-0.013214415, 0.035343364, 0.00086786033), (-0.013291589, 0.035253268, 0.0008862605), (-0.01337099, 0.03516527, 0.00090413325), (-0.013452795, 0.035079554, 0.0009214482), (-0.013537204, 0.03499631, 0.0009381747), (-0.013624429, 0.03491571, 0.00095428503), (-0.013714682, 0.034837916, 0.00096975797), (-0.013808155, 0.03476301, 0.0009845834), (-0.013904989, 0.03469101, 0.0009987665), (-0.014005246, 0.03462183, 0.0010123322), (-0.014108878, 0.03455526, 0.0010253284), (-0.0142156985, 0.03449096, 0.0010378284), (-0.014325359, 0.034428444, 0.0010499319), (-0.0144373365, 0.03436708, 0.0010617633), (-0.014550932, 0.034306124, 0.001073469), (-0.01466528, 0.034244727, 0.001085212), (-0.014779379, 0.03418197, 0.001097165), (-0.014892128, 0.034116924, 0.001109502), (-0.01500238, 0.03404867, 0.0011223896), (-0.015108997, 0.033976365, 0.0011359771), (-0.015210912, 0.033899285, 0.0011503893), (-0.015307185, 0.03381685, 0.0011657189), (-0.015397057, 0.033728667, 0.0011820222), (-0.015479982, 0.03363453, 0.0011993175), (-0.015555651, 0.033534423, 0.001217586), (-0.015623992, 0.033428505, 0.0012367757), (-0.015685158, 0.03331709, 0.001256808), (-0.015739482, 0.033200588, 0.0012775861), (-0.015787443, 0.033079475, 0.0012990043), (-0.015829595, 0.032954223, 0.0013209578), (-0.015866503, 0.03282527, 0.0013433517), (-0.015898691, 0.03269296, 0.0013661083), (-0.015926577, 0.03255753, 0.0013891723), (-0.015950428, 0.032419052, 0.0014125134), (-0.015970346, 0.032277465, 0.0014361264), (-0.015986241, 0.032132562, 0.0014600278), (-0.015997859, 0.03198403, 0.0014842511), (-0.01600479, 0.031831466, 0.0015088398), (-0.016006526, 0.031674433, 0.0015338387), (-0.016002495, 0.03151251, 0.0015592871), (-0.01599213, 0.03134534, 0.0015852097), (-0.015974909, 0.031172672, 0.0016116118), (-0.015950419, 0.030994387, 0.0016384737), (-0.015918376, 0.030810537, 0.0016657498), (-0.015878662, 0.030621342, 0.0016933687), (-0.015831335, 0.030427195, 0.001721236), (-0.01577662, 0.030228633, 0.0017492397), (-0.015714897, 0.030026311, 0.0017772559), (-0.015646676, 0.02982097, 0.0018051564), (-0.015572555, 0.029613376, 0.0018328151), (-0.015493198, 0.029404297, 0.0018601153), (-0.015409285, 0.02919445, 0.0018869543), (-0.015321489, 0.028984465, 0.0019132474), (-0.015230445, 0.028774869, 0.0019389298), (-0.015136733, 0.02856606, 0.0019639567), (-0.015040868, 0.028358316, 0.0019883025), (-0.014943293, 0.028151797, 0.0020119573), (-0.014844384, 0.02794656, 0.0020349245), (-0.014744455, 0.027742585, 0.0020572154), (-0.014643767, 0.027539806, 0.0020788475), (-0.014542536, 0.027338134, 0.0020998388), (-0.014440943, 0.027137488, 0.002120206), (-0.014339141, 0.026937809, 0.0021399623), (-0.0142372595, 0.026739083, 0.0021591163), (-0.014135413, 0.026541349, 0.002177672), (-0.014033699, 0.026344694, 0.0021956284), (-0.013932206, 0.026149249, 0.0022129822), (-0.0138310185, 0.025955183, 0.002229728), (-0.013730225, 0.025762679, 0.0022458609), (-0.013629927, 0.025571926, 0.002261377), (-0.0135302525, 0.0253831, 0.0022762755), (-0.013431362, 0.02519635, 0.0022905592), (-0.013333467, 0.02501179, 0.0023042343), (-0.013236831, 0.024829501, 0.0023173108), (-0.013141775, 0.024649523, 0.0023298017), (-0.013048677, 0.024471859, 0.0023417228), (-0.012957957, 0.024296492, 0.0023530906), (-0.012870063, 0.024123393, 0.0023639228), (-0.012785448, 0.023952521, 0.0023742367), (-0.012704535, 0.023783848, 0.0023840484), (-0.012627694, 0.023617351, 0.0023933735), (-0.0125552, 0.023453023, 0.0024022262), (-0.012487218, 0.02329087, 0.00241062), (-0.012423775, 0.023130907, 0.002418568), (-0.012364754, 0.022973143, 0.0024260825), (-0.012309897, 0.022817578, 0.0024331773), (-0.012258814, 0.022664187, 0.0024398668), (-0.01221102, 0.022512913, 0.0024461658), (-0.012165965, 0.022363657, 0.0024520906), (-0.012123082, 0.022216277, 0.002457658), (-0.0120818345, 0.022070587, 0.0024628853), (-0.012041766, 0.021926366, 0.0024677892), (-0.012002538, 0.021783369, 0.0024723855), (-0.011963964, 0.021641346, 0.0024766882), (-0.011926029, 0.02150006, 0.0024807092), (-0.011888891, 0.021359308, 0.0024844578), (-0.011852871, 0.021218935, 0.0024879402), (-0.011818423, 0.021078864, 0.0024911605), (-0.011786099, 0.020939091, 0.00249412), (-0.011756496, 0.020799704, 0.0024968188), (-0.011730206, 0.020660866, 0.0024992563), (-0.011707765, 0.020522814, 0.0025014316), (-0.011689601, 0.020385837, 0.0025033453), (-0.011675999, 0.020250255, 0.002504999), (-0.011667074, 0.020116387, 0.0025063977), (-0.01166276, 0.019984517, 0.0025075476), (-0.011662815, 0.01985488, 0.0025084575), (-0.011666834, 0.019727627, 0.0025091378), (-0.011674283, 0.0196028, 0.0025096005), (-0.011684534, 0.019480338, 0.002509857), (-0.011696909, 0.019360065, 0.0025099192), (-0.011710725, 0.019241696, 0.002509796), (-0.0117253335, 0.019124864, 0.0025094955), (-0.011740158, 0.019009134, 0.0025090224), (-0.01175472, 0.01889404, 0.0025083786), (-0.011768651, 0.018779112, 0.0025075634), (-0.0117817065, 0.018663915, 0.0025065732), (-0.011793756, 0.018548073, 0.002505403), (-0.011804771, 0.018431291, 0.0025040458), (-0.011814806, 0.01831338, 0.0025024947), (-0.011823975, 0.018194249, 0.0025007434), (-0.011832426, 0.01807392, 0.002498786), (-0.0118403165, 0.0179525, 0.002496619), (-0.01184779, 0.01783017, 0.0024942409), (-0.01185496, 0.017707165, 0.002491652), (-0.011861893, 0.017583737, 0.0024888555), (-0.011868607, 0.01746013, 0.002485855), (-0.011875063, 0.017336564, 0.0024826555), (-0.011881174, 0.017213209, 0.002479262), (-0.011886805, 0.017090172, 0.0024756787), (-0.011891792, 0.016967494, 0.0024719082), (-0.0118959425, 0.01684516, 0.0024679517), (-0.0118990615, 0.016723098, 0.0024638085), (-0.011900959, 0.01660121, 0.0024594762), (-0.0119014615, 0.016479382, 0.002454951), (-0.011900434, 0.016357508, 0.0024502291), (-0.011897783, 0.016235508, 0.002445307), (-0.011893466, 0.016113352, 0.0024401827), (-0.011887507, 0.015991062, 0.002434856), (-0.01187999, 0.015868712, 0.0024293303), (-0.011871067, 0.015746437, 0.002423611), (-0.011860953, 0.015624404, 0.002417707), (-0.011849918, 0.0155028105, 0.002411629), (-0.011838287, 0.015381857, 0.00240539), (-0.011826413, 0.015261723, 0.0023990024), (-0.011814675, 0.0151425535, 0.002392478), (-0.011803462, 0.015024436, 0.0023858268), (-0.011793152, 0.014907393, 0.0023790544), (-0.011784106, 0.014791377, 0.002372163), (-0.011776651, 0.014676274, 0.0023651503), (-0.011771077, 0.014561911, 0.0023580096), (-0.011767633, 0.014448078, 0.0023507301), (-0.011766526, 0.014334544, 0.0023432993), (-0.011767927, 0.014221079, 0.0023357028), (-0.011771982, 0.014107478, 0.0023279265), (-0.0117788175, 0.013993578, 0.0023199583), (-0.011788555, 0.013879271, 0.0023117892), (-0.011801318, 0.013764514, 0.0023034136), (-0.0118172355, 0.013649321, 0.002294831), (-0.011836446, 0.013533766, 0.0022860446), (-0.011859093, 0.01341796, 0.0022770616), (-0.011885312, 0.013302038, 0.0022678915), (-0.01191522, 0.013186139, 0.0022585448), (-0.011948889, 0.01307038, 0.0022490316), (-0.011986333, 0.012954847, 0.0022393593), (-0.012027479, 0.012839574, 0.002229532), (-0.012072154, 0.012724538, 0.002219549), (-0.01212007, 0.012609662, 0.002209404), (-0.012170819, 0.01249481, 0.002199086), (-0.012223875, 0.012379814, 0.002188579), (-0.012278611, 0.012264478, 0.0021778638), (-0.012334312, 0.012148602, 0.0021669203), (-0.012390217, 0.012032, 0.0021557275), (-0.012445538, 0.011914518, 0.0021442666), (-0.012499512, 0.011796044, 0.0021325229), (-0.012551426, 0.011676525, 0.0021204853), (-0.012600654, 0.011555955, 0.0021081488), (-0.012646681, 0.011434385, 0.002095513), (-0.012689117, 0.011311904, 0.002082583), (-0.012727709, 0.011188628, 0.0020693664), (-0.012762321, 0.011064687, 0.0020558734), (-0.0127929365, 0.0109402, 0.002042114), (-0.0128196245, 0.010815267, 0.0020280965), (-0.012842514, 0.010689954, 0.002013826), (-0.012861767, 0.010564283, 0.001999303), (-0.01287755, 0.010438227, 0.001984523), (-0.01289001, 0.010311723, 0.0019694755), (-0.01289926, 0.010184665, 0.001954146), (-0.0129053695, 0.010056927, 0.0019385152), (-0.012908368, 0.009928367, 0.0019225623), (-0.012908253, 0.009798846, 0.0019062652), (-0.0129050035, 0.009668242, 0.0018896026), (-0.012898606, 0.0095364535, 0.001872556), (-0.012889068, 0.009403415, 0.00185511), (-0.012876438, 0.009269096, 0.0018372536), (-0.012860823, 0.009133498, 0.0018189799), (-0.012842393, 0.008996655, 0.0018002862), (-0.012821375, 0.008858625, 0.0017811736), (-0.012798055, 0.008719478, 0.0017616453), (-0.012772751, 0.008579293, 0.0017417059), (-0.012745796, 0.0084381495, 0.0017213607), (-0.0127175115, 0.008296118, 0.0017006146), (-0.012688185, 0.008153264, 0.0016794717), (-0.012658049, 0.008009645, 0.0016579357), (-0.012627261, 0.007865312, 0.0016360095), (-0.012595897, 0.007720316, 0.001613697), (-0.012563952, 0.0075747166, 0.0015910032), (-0.012531349, 0.0074285846, 0.001567935), (-0.012497952, 0.0072820066, 0.0015445033), (-0.012463587, 0.0071350886, 0.0015207222), (-0.012428069, 0.0069879573, 0.0014966102), (-0.012391221, 0.0068407534, 0.0014721893), (-0.012352901, 0.00669363, 0.0014474845), (-0.012313013, 0.006546742, 0.0014225222), (-0.01227152, 0.006400238, 0.0013973297), (-0.012228444, 0.006254251, 0.001371932), (-0.012183858, 0.006108893, 0.0013463515), (-0.012137878, 0.005964245, 0.0013206062), (-0.012090641, 0.005820356, 0.001294709), (-0.012042287, 0.0056772437, 0.0012686672), (-0.011992941, 0.005534897, 0.001242483), (-0.01194269, 0.005393284, 0.0012161545), (-0.011891578, 0.005252358, 0.001189677), (-0.011839593, 0.00511207, 0.0011630447), (-0.011786667, 0.004972377, 0.0011362527), (-0.011732683, 0.0048332503, 0.0011092983), (-0.011677487, 0.004694684, 0.0010821834), (-0.0116209, 0.004556699, 0.0010549151), (-0.011562733, 0.0044193445, 0.0010275058), (-0.011502803, 0.004282696, 0.0009999744), (-0.011440949, 0.004146855, 0.00097234495), (-0.011377028, 0.0040119407, 0.0009446465), (-0.011310937, 0.0038780891, 0.00091691193), (-0.011242593, 0.003745445, 0.0008891773), (-0.011171942, 0.0036141593, 0.00086148095), (-0.011098941, 0.003484386, 0.00083386287), (-0.011023556, 0.003356281, 0.0008063645), (-0.0109457495, 0.0032300025, 0.00077902904), (-0.010865476, 0.0031057121, 0.0007519011), (-0.010782679, 0.002983575, 0.0007250274), (-0.010697293, 0.0028637603, 0.0006984564), (-0.010609253, 0.0027464398, 0.0006722381), (-0.010518504, 0.0026317828, 0.00064642314), (-0.010425008, 0.0025199517, 0.000621061), (-0.010328766, 0.0024110922, 0.0005961986), (-0.01022982, 0.0023053235, 0.000571877), (-0.010128269, 0.0022027283, 0.0005481291), (-0.010024262, 0.0021033413, 0.0005249771), (-0.009918, 0.002007143, 0.00050242996), (-0.009809722, 0.0019140559, 0.00048048238), (-0.009699687, 0.0018239438, 0.00045911456), (-0.009588155, 0.0017366204, 0.00043829347), (-0.009475361, 0.0016518612, 0.00041797553), (-0.009361491, 0.0015694207, 0.0003981109), (-0.009246668, 0.0014890551, 0.00037864858), (-0.009130932, 0.0014105464, 0.00035954258), (-0.009014237, 0.0013337263, 0.00034075792), (-0.008896453, 0.0012584988, 0.00032227646), (-0.00877738, 0.0011848568, 0.0003041016), (-0.008656765, 0.0011128928, 0.0002862613), (-0.008534336, 0.0010428004, 0.00026880912), (-0.008409824, 0.0009748682, 0.00025182305), (-0.008283001, 0.000909463, 0.00023540178), (-0.008153708, 0.0008470068, 0.00021965928), (-0.008021871, 0.00078794756, 0.00020471738), (-0.007887524, 0.0007327269, 0.00019069745), (-0.007750809, 0.00068174745, 0.00017771195), (-0.0076119704, 0.0006353438, 0.00016585644), (-0.0074713356, 0.00059375825, 0.00015520302), (-0.0073292935, 0.0005571259, 0.00014579577), (-0.0071862633, 0.00052546785, 0.0001376487), (-0.0070426585, 0.0004986954, 0.00013074641), (-0.006898857, 0.00047662298, 0.00012504718), (-0.0067551704, 0.00045898874, 0.00012048829), (-0.0066118245, 0.00044548113, 0.00011699283), (-0.0064689447, 0.00043576708, 0.00011447724), (-0.006326555, 0.0004295199, 0.00011285863), (-0.006184584, 0.00042644303, 0.0001120612), (-0.0060428837, 0.0004262875, 0.00011202089), (-0.00590125, 0.0004288609, 0.00011268785), (-0.0057594534, 0.000434027, 0.00011402646), (-0.0056172647, 0.00044169658, 0.000116012954), (-0.0054744845, 0.00045180984, 0.000118630924), (-0.005330965, 0.00046431317, 0.00012186531), (-0.0051866258, 0.00047913246, 0.00012569553), (-0.0050414647, 0.0004961464, 0.00013008862), (-0.0048955544, 0.0005151624, 0.00013499317), (-0.0047490397, 0.00053589855, 0.00014033476), (-0.004602122, 0.0005579726, 0.00014601344), (-0.0044550435, 0.0005809006, 0.00015190359), (-0.0043080677, 0.0006041045, 0.00015785609), (-0.00416146, 0.00062692823, 0.00016370276), (-0.004015472, 0.00064866146, 0.0001692624), (-0.003870328, 0.00066856743, 0.00017434808), (-0.0037262177, 0.00068591366, 0.0001787747), (-0.0035832901, 0.00070000184, 0.0001823664), (-0.0034416574, 0.00071019464, 0.00018496305), (-0.003301396, 0.0007159375, 0.00018642536), (-0.003162555, 0.0007167744, 0.0001866384), (-0.0030251602, 0.0007123559, 0.00018551343), (-0.0028892213, 0.0007024416, 0.00018298808), (-0.0027547344, 0.00068689627, 0.0001790253), (-0.0026216833, 0.00066568307, 0.00017361155), (-0.0024900367, 0.00063885463, 0.0001667546), (-0.002359744, 0.000606545, 0.00015848166), (-0.0022307306, 0.000568964, 0.00014883815), (-0.0021028908, 0.0005263955, 0.00013788765), (-0.001976085, 0.0004792003, 0.00012571306), (-0.001850138, 0.00042782386, 0.00011241909), (-0.0017248417, 0.00037280752, 0.00009813578), (-0.0015999632, 0.00031480181, 0.00008302267), (-0.0014752571, 0.0002545793, 0.000067272966), (-0.0013504827, 0.00019304463, 0.000051117066), (-0.001225424, 0.00013123869, 0.000034824512), (-0.0010999113, 0.000070334725, 0.000018703688), (-0.00097384275, 0.000011624245, 0.0000030981157), (-0.0008472027, -0.000043508247, 0), (-0.0007200758, -0.00009362179, 0), (-0.0005926536, -0.00013726584, 0), (-0.00046523486, -0.00017303535, 0), (-0.00033821646, -0.0001996311, 0), (-0.00021207651, -0.00021592142, 0), (-0.00008735037, -0.00022100113, 0)]
        uniform token subdivisionScheme = "none"
    }
}

