#usda 1.0
(
    defaultPrim = "World"
    metersPerUnit = 1
    upAxis = "Z"
)

def Xform "World"
{
    def Mesh "Leaf"
    {
        uniform bool doubleSided = 1
        int[] faceVertexCounts = [3, 3, 3, 3, 3, 3, 3, 3, 3, 3, 3, 3, 3, 3, 3, 3, 3, 3, 3, 3, 3, 3, 3, 3, 3, 3, 3, 3, 3, 3, 3, 3, 3, 3, 3, 3, 3, 3, 3, 3, 3, 3, 3, 3, 3, 3, 3, 3, 3, 3, 3, 3, 3, 3, 3, 3, 3, 3, 3, 3, 3, 3, 3, 3, 3, 3, 3, 3, 3, 3, 3, 3, 3, 3, 3, 3, 3, 3, 3, 3, 3, 3, 3, 3, 3, 3, 3, 3, 3, 3, 3, 3, 3, 3, 3, 3, 3, 3, 3, 3, 3, 3, 3, 3, 3, 3, 3, 3, 3, 3, 3, 3, 3, 3, 3, 3, 3, 3, 3, 3, 3, 3, 3, 3, 3, 3, 3, 3, 3, 3, 3, 3, 3, 3, 3, 3, 3, 3, 3, 3, 3, 3, 3, 3, 3, 3, 3, 3, 3, 3, 3, 3, 3, 3, 3, 3, 3, 3, 3, 3, 3, 3, 3, 3, 3, 3, 3, 3, 3, 3, 3, 3, 3, 3, 3, 3, 3, 3, 3, 3, 3, 3, 3, 3, 3, 3, 3, 3, 3, 3, 3, 3, 3, 3, 3, 3, 3, 3, 3, 3, 3, 3, 3, 3, 3, 3, 3, 3, 3, 3, 3, 3, 3, 3, 3, 3, 3, 3, 3, 3, 3, 3, 3, 3, 3, 3, 3, 3, 3, 3, 3, 3, 3, 3, 3, 3, 3, 3, 3, 3, 3, 3, 3, 3, 3, 3, 3, 3, 3, 3, 3, 3, 3, 3, 3, 3, 3, 3, 3, 3, 3, 3, 3, 3, 3, 3, 3, 3, 3, 3, 3, 3, 3, 3, 3, 3, 3, 3, 3, 3, 3, 3, 3, 3, 3, 3, 3, 3, 3, 3, 3, 3, 3, 3, 3, 3, 3, 3, 3, 3, 3, 3, 3, 3, 3, 3, 3, 3, 3, 3, 3, 3, 3, 3, 3, 3, 3, 3, 3, 3, 3, 3, 3, 3, 3, 3, 3, 3, 3, 3, 3, 3, 3, 3, 3, 3, 3, 3, 3, 3, 3, 3, 3, 3, 3, 3, 3, 3, 3, 3, 3, 3, 3, 3, 3, 3, 3, 3, 3, 3, 3, 3, 3, 3, 3, 3, 3, 3, 3, 3, 3, 3, 3, 3, 3, 3, 3, 3, 3, 3, 3, 3, 3, 3, 3, 3, 3, 3, 3, 3, 3, 3, 3, 3, 3, 3, 3, 3, 3, 3, 3, 3, 3, 3, 3, 3, 3, 3, 3, 3, 3, 3, 3, 3, 3, 3, 3, 3, 3, 3, 3, 3, 3, 3, 3, 3, 3, 3, 3, 3, 3, 3, 3, 3, 3, 3, 3, 3, 3, 3, 3, 3, 3, 3, 3, 3, 3, 3, 3, 3, 3, 3, 3, 3, 3, 3, 3, 3, 3, 3, 3, 3, 3, 3, 3, 3, 3, 3, 3, 3, 3, 3, 3, 3, 3, 3, 3, 3, 3, 3, 3, 3, 3, 3, 3, 3, 3, 3, 3, 3, 3, 3, 3, 3, 3, 3, 3, 3, 3, 3, 3, 3, 3, 3, 3, 3, 3, 3, 3, 3, 3, 3, 3, 3, 3, 3, 3, 3, 3, 3, 3, 3, 3, 3, 3, 3, 3, 3, 3, 3, 3, 3, 3, 3, 3, 3, 3, 3, 3, 3, 3, 3, 3, 3, 3, 3, 3, 3, 3, 3, 3, 3, 3, 3, 3, 3, 3, 3, 3, 3, 3, 3, 3, 3, 3, 3, 3, 3, 3, 3, 3, 3, 3, 3, 3, 3, 3, 3, 3, 3, 3, 3, 3, 3, 3, 3, 3, 3, 3, 3, 3, 3, 3, 3, 3, 3, 3, 3, 3, 3, 3, 3, 3, 3, 3, 3, 3, 3, 3, 3, 3, 3, 3, 3, 3, 3, 3, 3, 3, 3, 3, 3, 3, 3, 3, 3, 3, 3, 3, 3, 3, 3, 3, 3, 3, 3, 3, 3, 3, 3, 3, 3, 3, 3, 3, 3, 3, 3, 3, 3, 3, 3, 3, 3, 3, 3, 3, 3, 3, 3, 3, 3, 3, 3, 3, 3, 3, 3, 3, 3, 3, 3, 3, 3, 3, 3, 3, 3, 3, 3, 3, 3, 3, 3, 3, 3, 3, 3, 3, 3, 3, 3, 3, 3, 3, 3, 3, 3, 3, 3, 3, 3, 3, 3, 3, 3, 3, 3, 3, 3, 3, 3, 3, 3, 3, 3, 3, 3, 3, 3, 3, 3, 3, 3, 3, 3, 3, 3, 3, 3, 3, 3, 3, 3, 3, 3, 3, 3, 3, 3, 3, 3, 3, 3, 3, 3, 3, 3, 3, 3, 3, 3, 3, 3, 3, 3, 3, 3, 3, 3, 3, 3, 3, 3, 3, 3, 3, 3, 3, 3, 3, 3, 3, 3, 3, 3, 3, 3, 3, 3, 3, 3, 3, 3, 3, 3, 3, 3, 3, 3, 3, 3, 3, 3, 3, 3, 3, 3, 3, 3, 3, 3, 3, 3, 3, 3, 3, 3, 3, 3, 3, 3, 3, 3, 3, 3, 3, 3, 3, 3, 3, 3, 3, 3, 3, 3, 3, 3, 3, 3, 3, 3, 3, 3, 3, 3, 3, 3, 3, 3, 3, 3, 3, 3, 3, 3, 3, 3, 3, 3, 3, 3, 3, 3, 3, 3, 3, 3, 3, 3, 3, 3, 3, 3, 3, 3, 3, 3, 3, 3, 3, 3, 3, 3, 3, 3, 3, 3, 3, 3, 3, 3, 3, 3, 3, 3, 3, 3, 3, 3, 3, 3, 3, 3, 3, 3, 3, 3, 3, 3, 3, 3, 3, 3, 3, 3, 3, 3, 3, 3, 3, 3, 3, 3, 3, 3, 3, 3, 3, 3, 3, 3, 3, 3, 3, 3, 3, 3, 3, 3, 3, 3, 3, 3, 3, 3, 3, 3, 3, 3, 3, 3, 3, 3, 3, 3, 3, 3, 3, 3, 3, 3, 3, 3, 3, 3, 3, 3, 3, 3, 3, 3, 3, 3, 3, 3, 3, 3, 3, 3, 3, 3, 3, 3, 3, 3, 3, 3, 3, 3, 3, 3, 3, 3, 3, 3, 3, 3, 3, 3, 3, 3, 3, 3, 3, 3, 3, 3, 3, 3, 3, 3, 3, 3, 3, 3, 3, 3, 3, 3, 3, 3, 3, 3, 3, 3, 3, 3, 3, 3, 3, 3]
        int[] faceVertexIndices = [879, 880, 881, 878, 881, 882, 877, 882, 883, 879, 881, 878, 878, 882, 877, 883, 876, 877, 883, 884, 876, 886, 874, 875, 884, 885, 875, 875, 876, 884, 873, 874, 887, 872, 873, 889, 833, 860, 861, 885, 886, 875, 851, 835, 850, 835, 851, 852, 850, 835, 849, 847, 837, 846, 837, 845, 846, 848, 836, 847, 852, 853, 835, 857, 834, 856, 836, 848, 849, 834, 858, 859, 856, 834, 855, 853, 854, 834, 854, 855, 834, 858, 834, 857, 834, 859, 860, 833, 861, 862, 898, 869, 897, 869, 898, 899, 870, 896, 897, 870, 894, 895, 870, 895, 896, 870, 893, 894, 899, 900, 869, 905, 869, 904, 906, 869, 905, 869, 906, 907, 902, 869, 901, 869, 902, 903, 904, 869, 903, 869, 900, 901, 868, 907, 908, 871, 892, 893, 870, 871, 893, 832, 863, 864, 864, 865, 283, 832, 864, 284, 888, 873, 887, 874, 886, 887, 890, 891, 871, 891, 892, 871, 897, 869, 870, 890, 872, 889, 873, 888, 889, 907, 868, 869, 872, 890, 871, 868, 30, 867, 45, 866, 867, 863, 833, 862, 866, 282, 865, 738, 800, 801, 736, 802, 803, 737, 801, 802, 797, 740, 796, 798, 740, 797, 798, 799, 739, 738, 799, 800, 817, 809, 810, 810, 811, 816, 808, 809, 818, 804, 805, 735, 819, 807, 808, 807, 733, 806, 735, 803, 804, 734, 805, 806, 785, 774, 784, 786, 774, 785, 787, 773, 786, 781, 782, 777, 784, 775, 783, 782, 783, 776, 773, 787, 788, 771, 792, 793, 771, 793, 794, 771, 794, 795, 791, 772, 790, 791, 792, 771, 790, 772, 789, 789, 772, 788, 796, 740, 795, 812, 816, 811, 840, 842, 843, 840, 841, 842, 843, 844, 839, 840, 843, 839, 839, 844, 838, 845, 838, 844, 837, 838, 845, 837, 847, 836, 835, 853, 834, 849, 835, 836, 832, 285, 831, 830, 288, 829, 286, 830, 831, 860, 833, 834, 863, 832, 833, 817, 818, 809, 818, 819, 808, 819, 820, 807, 813, 814, 815, 816, 812, 815, 816, 817, 810, 807, 820, 733, 295, 824, 825, 828, 292, 827, 825, 826, 294, 820, 821, 732, 821, 822, 298, 732, 821, 299, 297, 822, 823, 813, 815, 812, 290, 828, 829, 824, 297, 823, 29, 868, 908, 993, 985, 992, 994, 984, 993, 995, 982, 994, 988, 989, 990, 987, 990, 991, 992, 986, 991, 948, 981, 995, 937, 1000, 1001, 1001, 1002, 26, 27, 936, 1001, 948, 995, 996, 942, 998, 999, 946, 996, 997, 999, 1000, 940, 944, 997, 998, 954, 977, 978, 952, 978, 979, 980, 951, 979, 959, 973, 974, 958, 974, 975, 955, 976, 977, 980, 981, 949, 987, 991, 986, 988, 990, 987, 992, 985, 986, 994, 983, 984, 993, 984, 985, 994, 982, 983, 981, 982, 995, 976, 956, 975, 1003, 25, 1002, 7, 1021, 1022, 1022, 1023, 6, 1020, 1021, 8, 10, 1018, 1019, 9, 1019, 1020, 11, 1017, 1018, 0, 5, 1023, 1, 2, 3, 3, 4, 1, 4, 5, 0, 7, 1022, 6, 1021, 7, 8, 5, 6, 1023, 4, 0, 1, 1020, 8, 9, 19, 1009, 1010, 17, 1011, 1012, 18, 1010, 1011, 23, 1005, 1006, 21, 1007, 1008, 22, 1006, 1007, 1008, 1009, 20, 1016, 13, 1015, 11, 1018, 10, 1019, 9, 10, 1017, 11, 12, 15, 1013, 1014, 1015, 14, 1014, 1017, 12, 1016, 1012, 1013, 16, 25, 1003, 1004, 24, 1004, 1005, 929, 919, 928, 930, 918, 929, 931, 917, 930, 921, 925, 926, 920, 926, 927, 928, 919, 927, 916, 931, 932, 936, 937, 1001, 938, 939, 1000, 938, 1000, 937, 914, 933, 934, 934, 935, 913, 27, 935, 936, 915, 932, 933, 1000, 939, 940, 914, 915, 933, 916, 932, 915, 914, 934, 913, 912, 27, 911, 912, 913, 935, 912, 935, 27, 931, 916, 917, 922, 924, 925, 923, 924, 922, 925, 921, 922, 927, 919, 920, 926, 920, 921, 929, 918, 919, 917, 918, 930, 28, 910, 911, 941, 999, 940, 971, 961, 962, 962, 963, 971, 960, 961, 972, 960, 973, 959, 960, 972, 973, 959, 974, 958, 964, 970, 963, 969, 970, 964, 970, 971, 963, 971, 972, 961, 965, 966, 968, 967, 968, 966, 965, 968, 969, 969, 964, 965, 975, 957, 958, 948, 996, 947, 981, 948, 949, 996, 946, 947, 997, 944, 945, 997, 945, 946, 998, 943, 944, 949, 950, 980, 976, 955, 956, 975, 956, 957, 954, 955, 977, 952, 953, 978, 953, 954, 978, 951, 952, 979, 951, 980, 950, 998, 942, 943, 941, 942, 999, 909, 910, 28, 908, 909, 29, 826, 827, 293, 779, 780, 778, 778, 780, 781, 777, 778, 781, 782, 776, 777, 783, 775, 776, 774, 775, 784, 773, 774, 786, 772, 791, 771, 741, 769, 770, 768, 769, 742, 767, 744, 766, 766, 745, 765, 764, 765, 747, 743, 767, 768, 771, 795, 770, 762, 750, 761, 761, 751, 760, 749, 762, 763, 754, 758, 759, 755, 757, 758, 753, 759, 760, 749, 763, 748, 756, 757, 755, 755, 758, 754, 753, 754, 759, 760, 752, 753, 760, 751, 752, 750, 751, 761, 762, 749, 750, 748, 763, 764, 773, 788, 772, 748, 764, 747, 747, 765, 746, 745, 746, 765, 745, 766, 744, 743, 768, 742, 767, 743, 744, 769, 741, 742, 795, 740, 770, 739, 799, 738, 739, 740, 798, 737, 802, 736, 735, 805, 734, 803, 735, 736, 801, 737, 738, 741, 770, 740, 733, 820, 732, 729, 730, 300, 299, 731, 732, 301, 726, 727, 301, 725, 726, 301, 727, 728, 731, 300, 730, 725, 301, 724, 301, 723, 724, 728, 729, 301, 721, 722, 302, 718, 719, 304, 720, 303, 719, 722, 723, 302, 302, 720, 721, 806, 733, 734, 717, 310, 716, 313, 715, 716, 713, 714, 322, 714, 715, 317, 332, 710, 711, 386, 707, 708, 385, 708, 709, 711, 712, 329, 706, 390, 705, 666, 667, 429, 703, 704, 405, 701, 702, 423, 673, 700, 701, 701, 424, 673, 702, 703, 422, 707, 388, 706, 696, 697, 678, 695, 696, 679, 698, 677, 697, 694, 682, 693, 693, 683, 692, 695, 680, 694, 676, 698, 699, 685, 690, 691, 686, 689, 690, 685, 691, 684, 688, 689, 687, 687, 689, 686, 690, 685, 686, 684, 691, 692, 674, 699, 700, 402, 704, 705, 684, 692, 683, 683, 693, 682, 681, 682, 694, 694, 680, 681, 695, 679, 680, 678, 679, 696, 677, 678, 697, 698, 676, 677, 699, 675, 676, 675, 699, 674, 673, 674, 700, 424, 672, 673, 671, 672, 424, 425, 670, 671, 425, 669, 670, 668, 669, 426, 444, 665, 666, 668, 427, 667, 446, 663, 664, 448, 661, 662, 662, 663, 447, 664, 665, 445, 450, 659, 660, 657, 452, 656, 658, 659, 450, 655, 453, 654, 653, 454, 652, 454, 653, 654, 452, 655, 656, 660, 661, 449, 657, 658, 451, 384, 709, 710, 306, 717, 718, 456, 650, 651, 648, 494, 647, 493, 648, 649, 646, 514, 645, 524, 525, 644, 517, 644, 645, 512, 646, 647, 528, 642, 643, 640, 587, 596, 584, 641, 642, 638, 615, 637, 637, 617, 636, 602, 638, 639, 639, 640, 599, 643, 644, 527, 633, 620, 621, 633, 621, 632, 634, 620, 633, 623, 630, 631, 624, 629, 630, 622, 631, 632, 619, 634, 635, 627, 628, 626, 625, 626, 628, 629, 625, 628, 629, 624, 625, 630, 623, 624, 622, 623, 631, 632, 621, 622, 618, 635, 636, 456, 649, 650, 617, 618, 636, 637, 616, 617, 615, 616, 637, 638, 613, 614, 613, 604, 612, 638, 614, 615, 619, 635, 618, 606, 610, 611, 607, 609, 610, 611, 612, 605, 608, 609, 607, 607, 610, 606, 611, 605, 606, 605, 612, 604, 620, 634, 619, 638, 603, 613, 638, 602, 603, 602, 639, 601, 600, 601, 639, 597, 598, 640, 599, 600, 639, 603, 604, 613, 642, 529, 584, 528, 529, 642, 599, 640, 598, 595, 596, 588, 640, 641, 586, 640, 596, 597, 530, 584, 529, 527, 528, 643, 526, 527, 644, 644, 525, 526, 455, 651, 652, 590, 592, 593, 590, 591, 592, 593, 594, 589, 590, 593, 589, 594, 595, 589, 588, 589, 595, 587, 588, 596, 585, 586, 641, 530, 582, 583, 585, 641, 584, 581, 532, 580, 533, 578, 579, 579, 580, 532, 531, 581, 582, 584, 530, 583, 576, 565, 575, 575, 566, 574, 564, 576, 577, 568, 572, 573, 569, 571, 572, 567, 573, 574, 577, 578, 563, 570, 571, 569, 569, 572, 568, 567, 568, 573, 574, 566, 567, 575, 565, 566, 564, 565, 576, 577, 563, 564, 563, 578, 533, 586, 587, 640, 555, 540, 541, 540, 555, 539, 542, 554, 541, 544, 545, 551, 552, 543, 544, 543, 553, 542, 538, 539, 556, 562, 533, 534, 533, 579, 532, 533, 562, 563, 537, 538, 557, 559, 535, 536, 537, 558, 536, 560, 534, 535, 545, 546, 551, 562, 534, 561, 560, 535, 559, 534, 560, 561, 556, 557, 538, 555, 556, 539, 558, 537, 557, 536, 558, 559, 549, 550, 547, 547, 548, 549, 551, 546, 550, 542, 553, 554, 553, 543, 552, 552, 544, 551, 554, 555, 541, 550, 546, 547, 532, 581, 531, 531, 582, 530, 713, 325, 712, 1016, 12, 13, 15, 1014, 14, 17, 1012, 16, 15, 16, 1013, 19, 1010, 18, 21, 1008, 20, 20, 1009, 19, 17, 18, 1011, 22, 23, 1006, 25, 1004, 24, 24, 1005, 23, 26, 27, 1001, 909, 28, 29, 27, 28, 911, 25, 26, 1002, 22, 1007, 21, 867, 30, 31, 32, 33, 867, 32, 867, 31, 43, 33, 34, 34, 35, 42, 33, 44, 867, 41, 35, 36, 37, 38, 39, 39, 40, 37, 40, 41, 36, 43, 34, 42, 33, 43, 44, 41, 42, 35, 40, 36, 37, 29, 30, 868, 867, 44, 45, 47, 866, 46, 282, 866, 48, 48, 866, 47, 49, 50, 282, 52, 281, 51, 50, 51, 281, 48, 49, 282, 54, 66, 53, 65, 54, 55, 55, 56, 64, 62, 57, 58, 58, 59, 61, 56, 57, 63, 52, 53, 68, 60, 61, 59, 62, 63, 57, 64, 56, 63, 64, 65, 55, 67, 53, 66, 53, 67, 68, 65, 66, 54, 52, 68, 281, 69, 281, 68, 71, 123, 70, 124, 69, 70, 122, 72, 73, 101, 74, 75, 73, 74, 102, 123, 71, 72, 58, 61, 62, 46, 866, 45, 76, 100, 75, 77, 78, 99, 79, 98, 78, 97, 79, 80, 82, 95, 81, 94, 82, 83, 96, 80, 81, 93, 83, 84, 91, 85, 86, 86, 87, 90, 88, 89, 87, 90, 91, 86, 92, 85, 91, 87, 89, 90, 85, 92, 84, 93, 84, 92, 94, 95, 82, 96, 81, 95, 96, 97, 80, 98, 79, 97, 99, 100, 77, 98, 99, 78, 101, 75, 100, 73, 102, 103, 103, 104, 121, 122, 73, 103, 105, 120, 104, 105, 106, 119, 118, 106, 107, 69, 124, 281, 101, 102, 74, 94, 83, 93, 100, 76, 77, 109, 116, 108, 109, 110, 115, 111, 114, 110, 113, 114, 111, 115, 110, 114, 111, 112, 113, 116, 109, 115, 118, 107, 117, 106, 118, 119, 120, 105, 119, 104, 120, 121, 72, 122, 123, 122, 103, 121, 117, 108, 116, 124, 70, 123, 261, 226, 260, 260, 227, 259, 263, 222, 262, 216, 266, 267, 264, 221, 263, 265, 266, 218, 265, 219, 264, 268, 215, 267, 262, 224, 261, 278, 184, 185, 229, 258, 259, 257, 258, 230, 231, 256, 257, 255, 256, 232, 126, 280, 125, 280, 124, 125, 108, 117, 107, 269, 213, 268, 127, 128, 181, 178, 129, 177, 128, 129, 179, 176, 130, 131, 174, 132, 133, 175, 131, 132, 177, 129, 130, 172, 134, 135, 171, 136, 137, 172, 135, 136, 139, 169, 138, 169, 139, 140, 170, 137, 138, 168, 140, 141, 173, 133, 134, 186, 187, 278, 278, 185, 186, 183, 184, 279, 127, 183, 279, 190, 277, 189, 188, 278, 187, 278, 188, 189, 141, 142, 167, 180, 128, 179, 178, 179, 129, 165, 144, 145, 143, 144, 165, 127, 182, 183, 128, 180, 181, 181, 182, 127, 166, 142, 143, 277, 190, 191, 147, 163, 146, 162, 147, 148, 149, 161, 148, 160, 149, 150, 150, 151, 160, 159, 151, 152, 149, 160, 161, 161, 162, 148, 157, 153, 154, 155, 156, 154, 157, 154, 156, 151, 159, 160, 159, 152, 158, 157, 158, 153, 152, 153, 158, 173, 134, 172, 171, 137, 170, 136, 171, 172, 177, 130, 176, 175, 132, 174, 131, 175, 176, 174, 133, 173, 145, 164, 165, 163, 164, 146, 143, 165, 166, 169, 140, 168, 167, 142, 166, 141, 167, 168, 162, 163, 147, 138, 169, 170, 164, 145, 146, 254, 232, 233, 254, 255, 232, 234, 253, 233, 236, 237, 250, 251, 235, 236, 235, 252, 234, 232, 256, 231, 260, 226, 227, 217, 218, 266, 266, 216, 217, 259, 227, 228, 257, 230, 231, 230, 258, 229, 229, 259, 228, 216, 267, 215, 249, 237, 238, 248, 249, 238, 239, 247, 248, 249, 250, 237, 253, 234, 252, 251, 252, 235, 250, 251, 236, 253, 254, 233, 240, 241, 246, 247, 240, 246, 245, 241, 242, 246, 241, 245, 244, 245, 242, 243, 244, 242, 240, 247, 239, 248, 238, 239, 268, 214, 215, 204, 272, 203, 273, 201, 202, 272, 202, 203, 207, 271, 206, 206, 272, 205, 272, 204, 205, 208, 271, 207, 194, 195, 276, 193, 276, 192, 276, 193, 194, 198, 199, 274, 196, 197, 275, 198, 274, 197, 195, 196, 275, 200, 201, 273, 268, 213, 214, 264, 219, 220, 220, 221, 264, 222, 263, 221, 225, 226, 261, 262, 222, 223, 265, 218, 219, 270, 210, 211, 210, 270, 209, 209, 271, 208, 224, 225, 261, 223, 224, 262, 212, 270, 211, 269, 212, 213, 200, 273, 199, 277, 191, 192, 127, 279, 126, 433, 438, 439, 434, 437, 438, 432, 439, 440, 443, 666, 442, 430, 441, 442, 431, 440, 441, 442, 666, 429, 432, 440, 431, 430, 431, 441, 432, 433, 439, 436, 437, 435, 435, 437, 434, 433, 434, 438, 430, 442, 429, 443, 444, 666, 651, 455, 456, 453, 454, 654, 454, 455, 652, 459, 460, 489, 457, 458, 491, 459, 490, 458, 456, 457, 649, 425, 426, 669, 444, 445, 665, 446, 664, 445, 451, 452, 657, 662, 447, 448, 661, 448, 449, 663, 446, 447, 453, 655, 452, 450, 660, 449, 419, 406, 407, 406, 420, 405, 408, 419, 407, 410, 411, 416, 417, 409, 410, 409, 418, 408, 405, 421, 703, 392, 398, 399, 393, 397, 398, 705, 399, 400, 404, 405, 704, 705, 401, 402, 705, 400, 401, 403, 404, 704, 412, 415, 411, 403, 704, 402, 703, 421, 422, 422, 423, 702, 429, 667, 428, 427, 668, 426, 667, 427, 428, 424, 701, 423, 416, 411, 415, 414, 415, 412, 417, 410, 416, 406, 419, 420, 419, 408, 418, 418, 409, 417, 420, 421, 405, 413, 414, 412, 671, 424, 425, 457, 492, 649, 503, 504, 501, 501, 502, 503, 501, 504, 500, 506, 507, 498, 499, 505, 506, 500, 504, 505, 497, 507, 508, 497, 508, 496, 494, 510, 647, 496, 509, 495, 500, 505, 499, 499, 506, 498, 497, 498, 507, 494, 495, 510, 508, 509, 496, 518, 519, 523, 524, 517, 518, 522, 519, 520, 524, 518, 523, 522, 523, 519, 521, 522, 520, 524, 644, 517, 648, 493, 494, 509, 510, 495, 647, 510, 511, 517, 645, 516, 514, 646, 513, 645, 514, 515, 646, 512, 513, 512, 647, 511, 516, 645, 515, 471, 472, 470, 473, 469, 470, 470, 472, 473, 475, 468, 469, 474, 475, 469, 473, 474, 469, 468, 475, 476, 463, 464, 484, 485, 462, 463, 483, 464, 465, 467, 468, 477, 466, 467, 479, 481, 465, 466, 461, 462, 486, 468, 476, 477, 460, 487, 488, 486, 462, 485, 461, 486, 487, 492, 457, 491, 459, 489, 490, 458, 490, 491, 460, 488, 489, 480, 466, 479, 478, 479, 467, 481, 466, 480, 464, 483, 484, 483, 465, 482, 482, 465, 481, 484, 485, 463, 478, 467, 477, 493, 649, 492, 461, 487, 460, 450, 451, 658, 729, 300, 301, 822, 297, 298, 298, 299, 821, 720, 302, 303, 718, 304, 305, 719, 303, 304, 723, 301, 302, 828, 291, 292, 289, 829, 288, 829, 289, 290, 824, 295, 296, 826, 293, 294, 294, 295, 825, 827, 292, 293, 296, 297, 824, 717, 306, 307, 717, 308, 309, 717, 307, 308, 716, 310, 311, 716, 312, 313, 716, 311, 312, 717, 309, 310, 715, 314, 315, 715, 316, 317, 715, 315, 316, 714, 318, 319, 714, 320, 321, 714, 319, 320, 714, 317, 318, 715, 313, 314, 718, 305, 306, 279, 280, 126, 277, 278, 189, 279, 184, 278, 284, 864, 283, 281, 282, 50, 865, 282, 283, 280, 281, 124, 271, 272, 206, 269, 270, 212, 271, 209, 270, 275, 276, 195, 273, 274, 199, 275, 197, 274, 272, 273, 202, 277, 192, 276, 830, 286, 287, 713, 322, 323, 325, 713, 324, 327, 712, 326, 325, 326, 712, 324, 713, 323, 712, 328, 329, 328, 712, 327, 711, 330, 331, 333, 710, 332, 332, 711, 331, 330, 711, 329, 831, 285, 286, 707, 386, 387, 285, 832, 284, 830, 287, 288, 714, 321, 322, 374, 350, 370, 370, 373, 374, 375, 350, 374, 379, 347, 378, 377, 349, 376, 348, 377, 378, 380, 346, 379, 710, 335, 383, 335, 336, 383, 350, 375, 376, 372, 373, 371, 371, 373, 370, 350, 369, 370, 337, 383, 336, 335, 710, 334, 344, 380, 381, 399, 705, 392, 391, 392, 705, 392, 393, 398, 395, 396, 394, 394, 396, 397, 393, 394, 397, 391, 705, 390, 384, 710, 383, 342, 381, 382, 382, 383, 338, 706, 389, 390, 708, 385, 386, 387, 388, 707, 709, 384, 385, 389, 706, 388, 333, 334, 710, 338, 339, 382, 339, 340, 382, 382, 340, 341, 342, 343, 381, 343, 344, 381, 382, 341, 342, 380, 344, 345, 379, 346, 347, 347, 348, 378, 349, 377, 348, 369, 350, 368, 350, 351, 368, 350, 376, 349, 346, 380, 345, 351, 352, 365, 354, 362, 363, 354, 361, 362, 353, 363, 364, 367, 351, 366, 366, 351, 365, 352, 364, 365, 367, 368, 351, 354, 355, 361, 355, 360, 361, 356, 360, 355, 360, 356, 359, 357, 358, 359, 356, 357, 359, 354, 363, 353, 352, 353, 364, 338, 383, 337, 299, 300, 731, 290, 291, 828, 14, 1015, 13]
        uniform token orientation = "rightHanded"
        point3f[] points = [(-0.000023596363, -0.00018945454, 0), (0.00010061125, -0.000197785, 0), (0.0002237095, -0.00019259013, 0), (0.00034555592, -0.000173543, 0), (0.00046601798, -0.00014076052, 0), (0.0005849811, -0.00009479256, 0), (0.00070235826, -0.000036585327, 0), (0.00081810076, 0.000032577787, 0.000007749077), (0.00093220983, 0.00011115292, 0.000026697777), (0.0010447477, 0.00019742362, 0.00004726916), (0.0011558466, 0.00028959295, 0.00006892208), (0.0012657158, 0.00038587258, 0.00009117862), (0.0013746415, 0.0004845628, 0.00011360685), (0.0014829839, 0.00058411766, 0.00013582865), (0.0015911656, 0.0006831923, 0.00015752645), (0.0016996543, 0.0007806701, 0.00017844597), (0.0018089396, 0.00087567075, 0.00019839482), (0.0019195052, 0.0009675403, 0.00021723747), (0.002031798, 0.0010558277, 0.00023488776), (0.002146198, 0.0011402518, 0.00025130014), (0.0022629912, 0.0012206642, 0.0002664606), (0.002382347, 0.0012970135, 0.00028037842), (0.0025043052, 0.001369313, 0.0002930793), (0.0026287728, 0.0014376186, 0.00030460066), (0.002755531, 0.0015020156, 0.00031498872), (0.002884254, 0.0015626157, 0.00032429775), (0.003014536, 0.0016195641, 0.00033259045), (0.0031459283, 0.0016730519, 0.00033993967), (0.003277976, 0.0017233321, 0.00034642973), (0.0034102611, 0.0017707355, 0.00035215775), (0.0035424368, 0.0018156809, 0.00035723374), (0.003674257, 0.0018586783, 0.00036177906), (0.0038055975, 0.001900322, 0.0003659236), (0.003936461, 0.0019412725, 0.00036980113), (0.004066975, 0.001982229, 0.0003735434), (0.0041973693, 0.002023892, 0.0003772734), (0.004327955, 0.0020669226, 0.00038109845), (0.0044590826, 0.002111899, 0.00038510375), (0.004591107, 0.0021592772, 0.0003893472), (0.0047243475, 0.0022093593, 0.0003938561), (0.0048590545, 0.0022622717, 0.0003986262), (0.0049953815, 0.00231796, 0.00040362324), (0.005133371, 0.002376196, 0.0004087873), (0.0052729486, 0.0024366032, 0.00041403915), (0.005413934, 0.0024986921, 0.00041928812), (0.0055560563, 0.002561908, 0.0004244408), (0.005698982, 0.0026256836, 0.00042940988), (0.0058423486, 0.002689493, 0.00043412155), (0.005985794, 0.0027528994, 0.00043852188), (0.006128992, 0.0028155984, 0.00044258047), (0.006271672, 0.002877443, 0.00044629225), (0.0064136405, 0.0029384585, 0.0004496767), (0.0065547843, 0.0029988373, 0.0004527748), (0.0066950694, 0.0030589218, 0.00045564456), (0.0068345293, 0.0031191718, 0.00045835492), (0.006973247, 0.0031801215, 0.00046097944), (0.007111332, 0.0032423337, 0.00046358965), (0.0072488985, 0.0033063486, 0.00046624907), (0.0073860446, 0.0033726408, 0.00046900814), (0.0075228396, 0.0034415808, 0.00047190065), (0.007659314, 0.003513408, 0.0004749418), (0.007795464, 0.0035882164, 0.00047812753), (0.007931255, 0.0036659548, 0.00048143588), (0.008066642, 0.0037464362, 0.00048482913), (0.008201586, 0.0038293598, 0.00048825698), (0.008336073, 0.0039143404, 0.0004916603), (0.008470133, 0.00400094, 0.000494975), (0.008603851, 0.0040887017, 0.0004981353), (0.008737372, 0.0041771824, 0.0005010774), (0.008870895, 0.004265976, 0.000503742), (0.00900466, 0.004354734, 0.00050607667), (0.009138919, 0.0044431775, 0.0005080377), (0.0092739165, 0.0045311037, 0.00050959154), (0.009409841, 0.004618383, 0.0005107161), (0.009546804, 0.004704958, 0.000511402), (0.009684802, 0.0047908328, 0.00051165273), (0.0098236995, 0.0048760716, 0.00051148597), (0.0099632135, 0.0049607893, 0.00051093334), (0.010102914, 0.0050451523, 0.00051004026), (0.010242241, 0.005129374, 0.0005088651), (0.01038053, 0.005213719, 0.0005074774), (0.010517045, 0.0052985027, 0.0005059557), (0.01065103, 0.005384093, 0.00050438434), (0.010781751, 0.0054709045, 0.0005028494), (0.010908548, 0.0055593927, 0.00050143455), (0.011030875, 0.005650038, 0.0005002162), (0.011148342, 0.0057433248, 0.0004992591), (0.01126073, 0.005839716, 0.00049861195), (0.011368011, 0.005939621, 0.0004983039), (0.011470342, 0.006043363, 0.0004983422), (0.011568051, 0.006151146, 0.000498711), (0.01166161, 0.00626303, 0.0004993716), (0.011751604, 0.0063789124, 0.0005002642), (0.01183869, 0.006498518, 0.00050131144), (0.011923553, 0.0066214064, 0.0005024227), (0.012006868, 0.0067469925, 0.00050349993), (0.012089255, 0.006874577, 0.000504444), (0.01217126, 0.007003391, 0.00050516054), (0.012253315, 0.007132648, 0.0005055665), (0.012335735, 0.007261599, 0.00050559477), (0.012418698, 0.007389584, 0.0005051982), (0.012502252, 0.0075160833, 0.000504352), (0.012586316, 0.0076407488, 0.000503054), (0.012670695, 0.0077634277, 0.00050132413), (0.012755093, 0.007884165, 0.0004992015), (0.012839133, 0.008003194, 0.00049674115), (0.012922383, 0.008120902, 0.00049400947), (0.013004376, 0.008237791, 0.000491079), (0.01308464, 0.008354427, 0.00048802365), (0.013162721, 0.008471378, 0.00048491367), (0.013238213, 0.008589168, 0.00048181132), (0.01331078, 0.008708223, 0.000478767), (0.013380182, 0.0088288365, 0.0004758166), (0.013446295, 0.008951149, 0.00047297936), (0.013509124, 0.009075141, 0.000470257), (0.013568816, 0.009200644, 0.0004676336), (0.013625658, 0.009327367, 0.00046507653), (0.0136800725, 0.009454933, 0.00046253804), (0.0137326, 0.00958292, 0.00045995778), (0.013783878, 0.009710909, 0.0004572658), (0.013834605, 0.009838524, 0.00045438606), (0.013885509, 0.009965472, 0.00045124046), (0.013937305, 0.010091559, 0.00044775262), (0.013990651, 0.010216706, 0.00044385192), (0.014046122, 0.010340948, 0.0004394768), (0.014104169, 0.010464413, 0.00043457779), (0.014165103, 0.010587304, 0.0004291193), (0.014229085, 0.010709861, 0.000423081), (0.014296126, 0.010832336, 0.0004164574), (0.014366099, 0.010954952, 0.0004092572), (0.014438765, 0.0110778855, 0.00040150093), (0.014513805, 0.011201246, 0.00039321848), (0.014590847, 0.01132507, 0.0003844456), (0.014669514, 0.011449324, 0.0003752208), (0.014749445, 0.011573922, 0.000365582), (0.014830321, 0.011698744, 0.0003555638), (0.014911885, 0.0118236635, 0.00034519585), (0.014993939, 0.01194857, 0.00033450214), (0.015076335, 0.012073395, 0.0003235015), (0.015158953, 0.01219813, 0.00031220948), (0.015241677, 0.012322831, 0.0003006414), (0.015324351, 0.012447618, 0.00028881617), (0.015406753, 0.012572665, 0.00027676058), (0.015488553, 0.012698177, 0.0002645136), (0.015569296, 0.01282437, 0.00025213012), (0.015648387, 0.012951435, 0.00023968349), (0.015725097, 0.01307952, 0.00022726668), (0.015798567, 0.013208702, 0.00021499147), (0.015867861, 0.013338974, 0.00020298573), (0.01593199, 0.013470237, 0.00019138867), (0.015989976, 0.01360231, 0.00018034443), (0.016040916, 0.01373494, 0.00016999437), (0.016084021, 0.013867829, 0.00016046868), (0.016118692, 0.014000655, 0.00015187802), (0.016144548, 0.014133114, 0.00014430596), (0.016161451, 0.01426494, 0.00013780293), (0.016169533, 0.014395934, 0.00013238224), (0.016169183, 0.014525979, 0.00012801871), (0.01616102, 0.01465505, 0.00012464986), (0.01614587, 0.01478321, 0.00012217976), (0.016124707, 0.014910597, 0.00012048509), (0.0160986, 0.015037403, 0.000119422795), (0.016068667, 0.015163848, 0.00011883869), (0.016036011, 0.015290151, 0.00011857629), (0.016001672, 0.015416502, 0.000118485), (0.01596659, 0.015543036, 0.00011842721), (0.015931578, 0.01566982, 0.00011828372), (0.015897304, 0.015796838, 0.00011795721), (0.01586428, 0.015924001, 0.0001173738), (0.01583288, 0.016051142, 0.000116482785), (0.015803343, 0.016178047, 0.00011525477), (0.015775792, 0.016304474, 0.000113678645), (0.015750261, 0.016430167, 0.00011175795), (0.015726706, 0.016554896, 0.00010950695), (0.015705034, 0.016678466, 0.00010694696), (0.015685117, 0.016800735, 0.00010410316), (0.0156668, 0.01692163, 0.000101002195), (0.015649911, 0.017041132, 0.00009767055), (0.015634276, 0.017159285, 0.00009413363), (0.01561971, 0.017276179, 0.000090415524), (0.015606033, 0.01739193, 0.00008653894), (0.015593069, 0.017506665, 0.00008252539), (0.015580649, 0.017620508, 0.00007839513), (0.015568624, 0.017733566, 0.000074166855), (0.015556868, 0.017845917, 0.00006985701), (0.015545287, 0.017957605, 0.00006547878), (0.015533828, 0.018068645, 0.00006104092), (0.015522482, 0.018179027, 0.00005654658), (0.015511286, 0.018288728, 0.000051992443), (0.015500326, 0.018397715, 0.000047368347), (0.01548972, 0.018505963, 0.000042657677), (0.015479619, 0.01861346, 0.000037838545), (0.015470181, 0.018720215, 0.00003288582), (0.015461561, 0.01882625, 0.000027773815), (0.015453891, 0.018931605, 0.000022479428), (0.01544726, 0.019036327, 0.000016985357), (0.0154417055, 0.019140456, 0.000011283013), (0.015437201, 0.019244019, 0.000005374709), (0.015433656, 0.019347018, -7.2518503e-7), (0.015430921, 0.019449426, -0.00000699038), (0.015428799, 0.019551178, -0.000013384189), (0.015427064, 0.019652182, -0.000019862355), (0.01542548, 0.019752314, -0.000026376953), (0.015423827, 0.019851448, -0.00003288097), (0.015421922, 0.019949453, -0.00003933307), (0.015419639, 0.02004622, -0.000045702018), (0.015416919, 0.020141676, -0.00005197015), (0.015413783, 0.020235797, -0.000058135516), (0.015410318, 0.020328615, -0.000064212356), (0.015406681, 0.020420212, -0.000070229704), (0.015403069, 0.020510728, -0.00007622834), (0.015399701, 0.020600341, -0.000082256236), (0.015396793, 0.020689253, -0.000088363086), (0.015394531, 0.020777667, -0.00009459443), (0.015393045, 0.020865764, -0.00010098612), (0.015392396, 0.020953694, -0.000107559674), (0.015392562, 0.02104155, -0.00011431915), (0.01539344, 0.021129364, -0.000121249825), (0.015394845, 0.021217108, -0.00012831905), (0.015396536, 0.021304695, -0.00013547894), (0.015398229, 0.021391999, -0.00014267083), (0.015399622, 0.02147887, -0.00014983099), (0.015400424, 0.02156517, -0.00015689668), (0.015400375, 0.02165077, -0.00016381234), (0.01539927, 0.021735607, -0.00017053439), (0.015396959, 0.021819673, -0.00017703495), (0.015393361, 0.021903038, -0.00018330311), (0.015388452, 0.021985842, -0.00018934412), (0.015382248, 0.02206829, -0.00019517628), (0.015374788, 0.022150634, -0.00020082577), (0.015366104, 0.022233145, -0.00020632017), (0.015356197, 0.022316083, -0.00021168115), (0.015345007, 0.02239967, -0.0002169174), (0.0153324, 0.022484053, -0.0002220184), (0.015318149, 0.022569293, -0.00022694992), (0.015301936, 0.022655332, -0.00023165187), (0.015283357, 0.022742005, -0.00023603873), (0.015261946, 0.022829026, -0.00024000283), (0.015237196, 0.022916017, -0.00024342012), (0.015208599, 0.023002522, -0.0002461579), (0.015175682, 0.023088042, -0.00024808425), (0.015138042, 0.02317206, -0.00024907748), (0.01509539, 0.023254078, -0.00024903557), (0.015047569, 0.023333648, -0.00024788387), (0.014994574, 0.023410393, -0.000245581), (0.01493656, 0.023484029, -0.00024212156), (0.014873835, 0.02355436, -0.00023753621), (0.014806837, 0.023621295, -0.00023188842), (0.014736104, 0.02368483, -0.00022526868), (0.01466224, 0.023745036, -0.00021778647), (0.014585865, 0.023802046, -0.00020956101), (0.014507574, 0.023856033, -0.00020071169), (0.014427894, 0.023907198, -0.00019134895), (0.01434725, 0.023955753, -0.0001815668), (0.014265937, 0.024001917, -0.00017143734), (0.014184111, 0.02404591, -0.00016100818), (0.014101786, 0.024087962, -0.00015030254), (0.0140188495, 0.024128307, -0.00013932218), (0.01393509, 0.024167197, -0.0001280527), (0.013850229, 0.024204914, -0.00011647078), (0.013763968, 0.02424177, -0.00010455222), (0.013676032, 0.024278114, -0.00009228037), (0.013586213, 0.024314323, -0.00007965366), (0.013494406, 0.024350805, -0.000066691886), (0.013400645, 0.024387974, -0.00005344022), (0.0133051155, 0.024426242, -0.000039970884), (0.01320816, 0.024465995, -0.000026382122), (0.013110269, 0.024507573, -0.000012794663), (0.013012056, 0.024551256, 6.539844e-7), (0.012914229, 0.024597242, 0.000013816913), (0.012817543, 0.024645647, 0.00002654616), (0.012722755, 0.024696497, 0.000038701262), (0.012630574, 0.024749737, 0.000050157247), (0.012541623, 0.024805244, 0.00006081138), (0.0124563975, 0.024862844, 0.00007058807), (0.012375241, 0.024922337, 0.000079441474), (0.012298332, 0.02498352, 0.00008735574), (0.012225685, 0.025046203, 0.000094342744), (0.0121571645, 0.025110247, 0.00010043772), (0.01209251, 0.025175558, 0.0001056931), (0.0120313745, 0.025242113, 0.00011017125), (0.0119733615, 0.025309945, 0.000113936694), (0.011918075, 0.025379153, 0.00011704864), (0.011865157, 0.025449881, 0.0001195543), (0.011814325, 0.025522301, 0.000121483725), (0.011765403, 0.025596604, 0.00012284648), (0.011718333, 0.025672967, 0.00012363045), (0.011673183, 0.025751553, 0.00012380265), (0.011630137, 0.025832482, 0.00012331211), (0.011589477, 0.02591583, 0.00012209443), (0.01155155, 0.026001628, 0.00012007728), (0.011516736, 0.02608986, 0.000117186784), (0.011485411, 0.026180472, 0.00011335371), (0.011457908, 0.02627338, 0.000108519234), (0.011434486, 0.026368486, 0.000102639584), (0.0114153065, 0.026465692, 0.000095689276), (0.011400412, 0.026564911, 0.00008766267), (0.0113897305, 0.026666079, 0.00007857376), (0.011383072, 0.02676916, 0.000068454334), (0.011380149, 0.026874153, 0.000057350757), (0.011380597, 0.026981095, 0.000045319626), (0.011384001, 0.027090054, 0.000032422937), (0.011389928, 0.027201125, 0.000018723045), (0.011397949, 0.02731443, 0.0000042780384), (0.0114076715, 0.027430106, -0.000010862162), (0.0114187505, 0.0275483, -0.000026658596), (0.011430904, 0.027669163, -0.000043084794), (0.011443919, 0.027792845, -0.00006012693), (0.011457642, 0.027919484, -0.000077782715), (0.011471978, 0.028049212, -0.000096059135), (0.011486873, 0.028182138, -0.00011496933), (0.011502299, 0.028318346, -0.000134529), (0.011518243, 0.02845789, -0.00015475255), (0.01153469, 0.028600773, -0.00017564952), (0.011551618, 0.028746953, -0.00019722138), (0.011568992, 0.028896319, -0.00021945908), (0.011586767, 0.029048689, -0.00024234144), (0.0116048865, 0.029203795, -0.0002658345), (0.011623298, 0.02936129, -0.00028989188), (0.011641953, 0.02952074, -0.00031445568), (0.011660824, 0.029681632, -0.00033945852), (0.011679903, 0.02984339, -0.0003648258), (0.011699206, 0.03000539, -0.0003904785), (0.011718777, 0.030166997, -0.00041633606), (0.011738674, 0.030327575, -0.00044231955), (0.011758965, 0.030486545, -0.0004683545), (0.011779718, 0.03064339, -0.00049437373), (0.011800978, 0.030797713, -0.00052031985), (0.011822769, 0.030949237, -0.00054614746), (0.011845075, 0.031097839, -0.00057182484), (0.011867838, 0.031243555, -0.0005973355), (0.011890959, 0.031386573, -0.0006226787), (0.011914307, 0.03152723, -0.0006478699), (0.0119377235, 0.03166598, -0.00067294005), (0.011961042, 0.031803377, -0.00069793494), (0.011984107, 0.031940024, -0.0007229129), (0.012006785, 0.03207655, -0.00074794254), (0.012028985, 0.032213554, -0.00077309896), (0.012050662, 0.032351583, -0.0007984598), (0.0120718265, 0.032491088, -0.00082410057), (0.012092534, 0.032632407, -0.00085008924), (0.012112878, 0.032775745, -0.0008764809), (0.012132967, 0.03292117, -0.0009033127), (0.012152904, 0.033068612, -0.000930599), (0.012172762, 0.033217877, -0.0009583279), (0.012192558, 0.033368662, -0.0009864587), (0.01221223, 0.033520583, -0.0010149217), (0.0122316275, 0.03367319, -0.0010436191), (0.012250503, 0.033826012, -0.0010724288), (0.012268514, 0.033978574, -0.0011012094), (0.012285247, 0.034130417, -0.0011298076), (0.012300231, 0.034281135, -0.0011580662), (0.01231297, 0.03443038, -0.0011858328), (0.012322984, 0.034577873, -0.0012129691), (0.012329835, 0.034723416, -0.0012393581), (0.012333166, 0.034866903, -0.0012649111), (0.012332719, 0.035008293, -0.0012895722), (0.012328352, 0.035147633, -0.0013133195), (0.012320047, 0.035285026, -0.0013361648), (0.012307897, 0.03542062, -0.0013581496), (0.012292089, 0.03555461, -0.001379339), (0.012272879, 0.035687197, -0.0013998145), (0.012250557, 0.035818584, -0.0014196638), (0.012225417, 0.03594895, -0.0014389722), (0.012197727, 0.036078446, -0.0014578137), (0.0121677015, 0.03620716, -0.0014762435), (0.012135486, 0.03633512, -0.0014942937), (0.012101159, 0.036462292, -0.0015119708), (0.012064738, 0.036588557, -0.001529257), (0.012026196, 0.03671375, -0.0015461149), (0.011985494, 0.03683764, -0.0015624941), (0.011942611, 0.036959976, -0.001578341), (0.011897582, 0.037080497, -0.0015936091), (0.011850523, 0.037198965, -0.0016082702), (0.011801657, 0.037315197, -0.0016223241), (0.011751327, 0.037429098, -0.0016358063), (0.011699986, 0.037540678, -0.0016487935), (0.011648189, 0.037650082, -0.0016614049), (0.011596557, 0.037757594, -0.0016737994), (0.011545735, 0.037863646, -0.0016861694), (0.011496349, 0.037968792, -0.0016987307), (0.011448947, 0.038073707, -0.00171171), (0.011403956, 0.038179133, -0.0017253299), (0.011361645, 0.03828585, -0.0017397946), (0.011322085, 0.038394626, -0.001755276), (0.011285153, 0.038506165, -0.001771902), (0.011250526, 0.03862106, -0.001789748), (0.011217708, 0.038739774, -0.0018088325), (0.011186066, 0.038862582, -0.001829118), (0.0111548845, 0.038989574, -0.0018505146), (0.011123416, 0.039120644, -0.0018728889), (0.011090942, 0.03925551, -0.0018960758), (0.01105683, 0.03939374, -0.0019198917), (0.011020575, 0.039534777, -0.0019441488), (0.010981834, 0.039677992, -0.0019686692), (0.010940436, 0.03982273, -0.001993296), (0.010896391, 0.039968364, -0.002017903), (0.0108498605, 0.040114317, -0.0020424), (0.01080113, 0.04026011, -0.0020667338), (0.010750566, 0.040405378, -0.0020908867), (0.010698565, 0.040549867, -0.00211487), (0.010645512, 0.040693447, -0.002138716), (0.010591724, 0.04083608, -0.0021624668), (0.010537429, 0.0409778, -0.0021861652), (0.010482734, 0.04111867, -0.0022098427), (0.010427623, 0.04125877, -0.002233513), (0.010371962, 0.041398156, -0.0022571653), (0.010315521, 0.041536823, -0.0022807631), (0.010258003, 0.041674715, -0.0023042443), (0.01019909, 0.041811697, -0.0023275276), (0.01013847, 0.041947577, -0.0023505185), (0.0100758895, 0.042082127, -0.0023731198), (0.010011179, 0.042215083, -0.002395242), (0.009944274, 0.042346198, -0.0024168128), (0.0098752305, 0.042475265, -0.0024377874), (0.009804219, 0.042602144, -0.0024581533), (0.009731514, 0.04272678, -0.002477935), (0.009657468, 0.042849224, -0.002497193), (0.009582479, 0.04296963, -0.00251602), (0.009506955, 0.043088242, -0.002534535), (0.009431283, 0.043205384, -0.0025528723), (0.009355791, 0.043321427, -0.0025711702), (0.009280726, 0.043436747, -0.0025895606), (0.009206237, 0.043551706, -0.002608156), (0.009132368, 0.043666612, -0.0026270414), (0.0090590585, 0.043781687, -0.0026462658), (0.008986162, 0.04389705, -0.00266584), (0.008913457, 0.044012714, -0.0026857364), (0.0088406755, 0.04412858, -0.0027058912), (0.008767524, 0.04424445, -0.0027262114), (0.008693712, 0.044360053, -0.002746585), (0.008618969, 0.04447508, -0.0027668895), (0.008543058, 0.044589207, -0.0027870035), (0.008465797, 0.04470213, -0.0028068172), (0.008387047, 0.044813603, -0.0028262415), (0.008306727, 0.04492346, -0.0028452151), (0.008224798, 0.045031615, -0.002863708), (0.008141268, 0.045138095, -0.002881724), (0.008056175, 0.04524302, -0.0028992987), (0.007969591, 0.0453466, -0.0029164972), (0.0078816125, 0.0454491, -0.002933408), (0.0077923695, 0.045550834, -0.0029501363), (0.0077020195, 0.045652132, -0.0029667986), (0.0076107606, 0.04575331, -0.0029835152), (0.0075188335, 0.045854665, -0.003000404), (0.0074265287, 0.045956425, -0.0030175776), (0.0073341895, 0.046058774, -0.0030351377), (0.007242208, 0.046161827, -0.003053175), (0.0071510198, 0.046265636, -0.003071767), (0.00706109, 0.0463702, -0.003090978), (0.0069728913, 0.046475478, -0.003110859), (0.006886882, 0.04658139, -0.0031314485), (0.006803474, 0.04668785, -0.0031527716), (0.006723008, 0.046794746, -0.003174839), (0.006645722, 0.046901986, -0.0031976474), (0.006571727, 0.04700946, -0.003221176), (0.0065009957, 0.04711708, -0.003245386), (0.006433351, 0.047224738, -0.0032702184), (0.00636847, 0.047332328, -0.0032955927), (0.006305899, 0.047439728, -0.0033214076), (0.006245077, 0.04754678, -0.0033475403), (0.006185368, 0.047653314, -0.0033738506), (0.0061260997, 0.047759105, -0.0034001828), (0.006066604, 0.047863908, -0.0034263718), (0.0060062604, 0.047967434, -0.0034522477), (0.0059445277, 0.048069384, -0.0034776425), (0.00588098, 0.048169427, -0.0035023964), (0.005815321, 0.048267234, -0.0035263626), (0.0057473998, 0.048362486, -0.0035494128), (0.005677204, 0.04845488, -0.00357144), (0.005604852, 0.04854414, -0.0035923605), (0.005530569, 0.048630036, -0.0036121141), (0.00545466, 0.048712377, -0.003630664), (0.0053774808, 0.048791032, -0.0036479938), (0.0052994047, 0.048865914, -0.0036641064), (0.005220793, 0.048937, -0.00367902), (0.0051419716, 0.049004313, -0.003692768), (0.0050632134, 0.04906794, -0.0037053952), (0.0049847313, 0.049128015, -0.0037169585), (0.0049066735, 0.049184725, -0.0037275269), (0.0048291334, 0.049238317, -0.0037371817), (0.0047521577, 0.049289085, -0.003746018), (0.0046757646, 0.049337365, -0.003754146), (0.0045999587, 0.049383543, -0.0037616903), (0.0045247446, 0.04942804, -0.0037687903), (0.0044501396, 0.049471293, -0.0037755955), (0.004376179, 0.04951375, -0.0037822637), (0.0043029147, 0.049555864, -0.003788953), (0.0042304117, 0.04959804, -0.0037958142), (0.004158736, 0.049640644, -0.0038029833), (0.0040879394, 0.049683973, -0.0038105708), (0.0040180464, 0.049728233, -0.0038186547), (0.003949037, 0.049773533, -0.0038272731), (0.0038808375, 0.049819876, -0.0038364206), (0.0038133143, 0.049867146, -0.0038460467), (0.0037462732, 0.049915146, -0.0038560587), (0.0036794685, 0.04996358, -0.0038663282), (0.0036126168, 0.0500121, -0.0038767003), (0.0035454172, 0.05006033, -0.003887007), (0.0034775743, 0.050107896, -0.0038970797), (0.0034088236, 0.050154455, -0.003906765), (0.003338954, 0.05019973, -0.0039159376), (0.003267826, 0.05024353, -0.003924511), (0.0031953845, 0.050285775, -0.0039324462), (0.003121662, 0.050326493, -0.003939753), (0.0030467731, 0.05036582, -0.003946491), (0.002970901, 0.05040399, -0.003952761), (0.0028942758, 0.0504413, -0.0039586974), (0.0028171474, 0.050478097, -0.0039644516), (0.0027397575, 0.050514735, -0.0039701797), (0.0026623101, 0.050551537, -0.0039760238), (0.0025849477, 0.050588775, -0.0039821016), (0.0025077336, 0.05062664, -0.0039884914), (0.002430644, 0.05066522, -0.003995227), (0.0023535683, 0.0507045, -0.0040022954), (0.0022763228, 0.050744373, -0.0040096375), (0.002198671, 0.050784644, -0.004017158), (0.002120352, 0.050825052, -0.0040247347), (0.0020411133, 0.050865322, -0.004032235), (0.0019607444, 0.050905168, -0.004039532), (0.0018791059, 0.050944354, -0.0040465184), (0.0017961535, 0.050982706, -0.004053122), (0.0017119519, 0.05102014, -0.0040593147), (0.0016266775, 0.051056676, -0.004065121), (0.0015406094, 0.051092442, -0.004070616), (0.0014541089, 0.05112767, -0.0040759225), (0.001367589, 0.05116266, -0.004081201), (0.0012814784, 0.05119779, -0.0040866365), (0.0011961815, 0.051233448, -0.0040924232), (0.0011120402, 0.051270016, -0.004098746), (0.001029301, 0.051307824, -0.004105763), (0.0009480896, 0.05134713, -0.004113592), (0.0008683987, 0.051388092, -0.004122298), (0.0007900871, 0.05143074, -0.0041318843), (0.00071289256, 0.05147497, -0.0041422895), (0.0006364561, 0.051520552, -0.0041533913), (0.00056035613, 0.05156713, -0.00416501), (0.00048414842, 0.05161424, -0.00417692), (0.0004074079, 0.05166134, -0.0041888617), (0.00032976887, 0.051707815, -0.0042005554), (0.00025095872, 0.05175304, -0.004211717), (0.0001708225, 0.051796384, -0.0042220694), (0.00008933598, 0.051837247, -0.0042313593), (0.0000066061043, 0.05187508, -0.004239364), (-0.000077140896, 0.05190942, -0.004259958), (-0.00016158211, 0.051939894, -0.004280196), (-0.00024632877, 0.05196624, -0.0042987308), (-0.00033096192, 0.05198831, -0.004315469), (-0.00041506914, 0.052006084, -0.0043303696), (-0.0004982788, 0.05201966, -0.0043434477), (-0.00058028847, 0.052029256, -0.004354771), (-0.000660885, 0.0520352, -0.004364461), (-0.000739955, 0.05203791, -0.004372686), (-0.00081748515, 0.052037884, -0.004379655), (-0.00089355314, 0.052035674, -0.0043856036), (-0.0009683111, 0.052031867, -0.0043907883), (-0.0010419642, 0.052027047, -0.0043954663), (-0.0011147461, 0.052021757, -0.0043998845), (-0.0011868966, 0.052016497, -0.0044042636), (-0.0012586411, 0.052011665, -0.004408785), (-0.0013301763, 0.05200754, -0.00441358), (-0.0014016617, 0.052004278, -0.0044187205), (-0.0014732188, 0.052001875, -0.004424217), (-0.0015449355, 0.052000184, -0.0044300174), (-0.0016168763, 0.051998924, -0.0044360124), (-0.0016890948, 0.051997695, -0.0044420455), (-0.0017616467, 0.051996004, -0.004447927), (-0.0018346021, 0.051993318, -0.0044534504), (-0.0019080532, 0.051989097, -0.004458411), (-0.001982119, 0.05198284, -0.0044626244), (-0.002056942, 0.051974125, -0.0044659427), (-0.0021326838, 0.051962666, -0.0044682696), (-0.0022095111, 0.05194831, -0.004469569), (-0.0022875834, 0.051931076, -0.0044698687), (-0.002367039, 0.051911145, -0.004469261), (-0.0024479798, 0.051888842, -0.004467891), (-0.0025304614, 0.05186462, -0.0044659474), (-0.0026144884, 0.051839005, -0.0044636433), (-0.0027000122, 0.051812563, -0.004461199), (-0.0027869372, 0.051785834, -0.00445882), (-0.0028751313, 0.051759306, -0.0044566807), (-0.002964439, 0.051733337, -0.0044549094), (-0.0030546992, 0.051708158, -0.0044535757), (-0.003145759, 0.05168383, -0.0044526877), (-0.0032374908, 0.051660247, -0.004452192), (-0.0033298016, 0.051637154, -0.004451981), (-0.0034226389, 0.051614176, -0.004451904), (-0.003515991, 0.05159085, -0.004451783), (-0.0036098815, 0.051566664, -0.004451431), (-0.0037043581, 0.05154113, -0.0044506686), (-0.00379948, 0.051513806, -0.004449342), (-0.0038953, 0.051484354, -0.0044473335), (-0.003991852, 0.051452555, -0.0044445726), (-0.0040891343, 0.051418323, -0.004441037), (-0.004187102, 0.05138172, -0.004436752), (-0.004285663, 0.05134291, -0.00443178), (-0.0043846765, 0.05130215, -0.004426212), (-0.0044839615, 0.051259756, -0.0044201524), (-0.004583307, 0.051216036, -0.0044137016), (-0.004682485, 0.051171273, -0.0044069444), (-0.0047812685, 0.051125668, -0.0043999366), (-0.004879445, 0.051079333, -0.0043926993), (-0.0049768295, 0.051032256, -0.004385214), (-0.005073279, 0.05098432, -0.004377424), (-0.005168694, 0.050935306, -0.0043692435), (-0.0052630208, 0.050884932, -0.004360569), (-0.0053562513, 0.05083288, -0.0043512895), (-0.0054484126, 0.050778832, -0.0043413024), (-0.0055395616, 0.05072254, -0.004330529), (-0.005629771, 0.050663825, -0.004318921), (-0.0057191206, 0.050602622, -0.0043064724), (-0.00580769, 0.050538987, -0.0042932187), (-0.005895547, 0.050473087, -0.0042792335), (-0.0059827478, 0.05040518, -0.004264621), (-0.006069331, 0.050335586, -0.0042495024), (-0.0061553204, 0.05026464, -0.004234001), (-0.006240725, 0.050192643, -0.0042182226), (-0.006325539, 0.050119795, -0.0042022406), (-0.0064097447, 0.050046172, -0.004186081), (-0.00649331, 0.049971685, -0.004169711), (-0.006576186, 0.04989606, -0.004153035), (-0.0066583045, 0.049818844, -0.004135897), (-0.006739571, 0.049739417, -0.004118083), (-0.006819861, 0.049657036, -0.004099341), (-0.006899014, 0.04957088, -0.0040793926), (-0.006976834, 0.049480136, -0.0040579587), (-0.0070530903, 0.049384035, -0.0040347786), (-0.0071275258, 0.049281932, -0.0040096347), (-0.0071998667, 0.049173366, -0.003982368), (-0.007269844, 0.0490581, -0.0039528958), (-0.007337209, 0.048936136, -0.0039212187), (-0.007401761, 0.04880774, -0.0038874238), (-0.0074633704, 0.048673417, -0.0038516794), (-0.0075219977, 0.04853387, -0.0038142262), (-0.007577714, 0.04838996, -0.003775362), (-0.0076307077, 0.04824265, -0.0037354222), (-0.007681289, 0.048092924, -0.0036947613), (-0.00772988, 0.04794174, -0.0036537305), (-0.007776997, 0.047789965, -0.0036126608), (-0.007823228, 0.047638334, -0.003571846), (-0.007869195, 0.047487408, -0.003531531), (-0.007915525, 0.047337573, -0.0034919046), (-0.007962805, 0.04718903, -0.0034530973), (-0.008011554, 0.047041822, -0.0034151825), (-0.008062194, 0.046895858, -0.0033781829), (-0.008115025, 0.046750944, -0.0033420788), (-0.008170224, 0.046606828, -0.0033068194), (-0.008227834, 0.04646325, -0.0032723346), (-0.008287784, 0.046319958, -0.0032385453), (-0.0083499085, 0.046176746, -0.0032053734), (-0.0084139705, 0.04603347, -0.0031727506), (-0.008479692, 0.045890063, -0.0031406227), (-0.008546789, 0.045746516, -0.0031089534), (-0.0086149955, 0.045602884, -0.0030777233), (-0.0086840885, 0.045459256, -0.0030469294), (-0.008753901, 0.045315742, -0.0030165808), (-0.008824334, 0.045172464, -0.0029866954), (-0.008895344, 0.045029525, -0.002957294), (-0.008966946, 0.044886995, -0.0029283972), (-0.009039189, 0.04474492, -0.0029000212), (-0.009112136, 0.044603307, -0.0028721746), (-0.009185851, 0.044462133, -0.0028448578), (-0.0092603685, 0.044321347, -0.0028180613), (-0.009335691, 0.044180892, -0.0027917675), (-0.009411767, 0.044040706, -0.002765951), (-0.009488495, 0.043900725, -0.0027405794), (-0.009565723, 0.0437609, -0.002715617), (-0.0096432585, 0.043621194, -0.0026910238), (-0.009720876, 0.043481585, -0.0026667581), (-0.009798337, 0.04334205, -0.002642777), (-0.009875403, 0.043202564, -0.0026190358), (-0.009951844, 0.043063097, -0.0025954887), (-0.010027454, 0.042923592, -0.002572088), (-0.010102052, 0.042783972, -0.0025487836), (-0.010175486, 0.042644136, -0.002525523), (-0.010247623, 0.042503957, -0.0025022519), (-0.01031835, 0.04236328, -0.0024789136), (-0.010387559, 0.042221952, -0.0024554513), (-0.010455144, 0.042079818, -0.0024318085), (-0.010520985, 0.041936733, -0.0024079324), (-0.010584954, 0.041792583, -0.0023837737), (-0.010646904, 0.04164728, -0.0023592894), (-0.010706678, 0.041500792, -0.0023344446), (-0.010764113, 0.041353106, -0.0023092122), (-0.010819048, 0.041204266, -0.0022835736), (-0.010871336, 0.041054327, -0.0022575185), (-0.010920853, 0.040903375, -0.0022310426), (-0.010967508, 0.04075148, -0.002204146), (-0.011011246, 0.040598713, -0.0021768326), (-0.0110520525, 0.04044512, -0.002149106), (-0.011089951, 0.040290702, -0.0021209696), (-0.011124999, 0.040135447, -0.0020924248), (-0.0111572845, 0.0399793, -0.0020634723), (-0.011186915, 0.039822195, -0.002034112), (-0.011214017, 0.039664056, -0.002004348), (-0.011238727, 0.039504826, -0.0019741892), (-0.011261199, 0.03934449, -0.0019436574), (-0.0112816105, 0.03918308, -0.0019127898), (-0.011300167, 0.03902071, -0.0018816455), (-0.011317124, 0.038857587, -0.0018503095), (-0.011332794, 0.038693998, -0.0018188963), (-0.0113475695, 0.038530327, -0.0017875503), (-0.011361929, 0.03836704, -0.0017564467), (-0.0113764405, 0.038204655, -0.0017257868), (-0.011391765, 0.038043734, -0.0016957936), (-0.011408639, 0.037884843, -0.0016667023), (-0.01142785, 0.037728522, -0.0016387518), (-0.011450206, 0.03757526, -0.0016121722), (-0.0114764925, 0.037425477, -0.0015871736), (-0.011507425, 0.037279487, -0.0015639338), (-0.011543609, 0.037137486, -0.0015425887), (-0.011585488, 0.03699956, -0.001523223), (-0.011633313, 0.03686568, -0.0015058652), (-0.0116871195, 0.036735702, -0.0014904853), (-0.011746714, 0.03660939, -0.0014769959), (-0.011811688, 0.036486425, -0.0014652569), (-0.011881439, 0.036366437, -0.0014550847), (-0.011955212, 0.03624902, -0.0014462618), (-0.0120321475, 0.036133744, -0.0014385504), (-0.012111347, 0.036020182, -0.0014317065), (-0.0121919345, 0.035907924, -0.0014254927), (-0.012273112, 0.035796575, -0.0014196918), (-0.01235422, 0.035685785, -0.0014141173), (-0.01243477, 0.035575226, -0.0014086213), (-0.012514473, 0.03546463, -0.0014031), (-0.012593246, 0.035353754, -0.0013974949), (-0.0126712, 0.035242412, -0.0013917916), (-0.012748617, 0.035130456, -0.0013860152), (-0.012825909, 0.035017796, -0.0013802233), (-0.01290357, 0.034904376, -0.0013744977), (-0.012982128, 0.034790196, -0.0013689345), (-0.013062094, 0.034675304, -0.0013636356), (-0.0131439185, 0.034559775, -0.0013586989), (-0.013227955, 0.034443744, -0.0013542114), (-0.013314441, 0.03432735, -0.0013502425), (-0.013403485, 0.034210764, -0.0013468415), (-0.013495066, 0.03409416, -0.0013440337), (-0.013589052, 0.033977695, -0.0013418222), (-0.013685211, 0.033861518, -0.0013401872), (-0.013783237, 0.033745732, -0.0013390891), (-0.013882776, 0.033630397, -0.0013384715), (-0.01398344, 0.03351553, -0.0013382636), (-0.014084828, 0.03340109, -0.0013383825), (-0.014186533, 0.03328698, -0.0013387363), (-0.014288143, 0.033173062, -0.0013392247), (-0.01438924, 0.033059154, -0.0013397409), (-0.014489396, 0.032945056, -0.0013401712), (-0.014588156, 0.03283054, -0.0013403967), (-0.014685046, 0.03271538, -0.001340293), (-0.01477956, 0.032599352, -0.0013397324), (-0.0148711745, 0.032482244, -0.0013385854), (-0.014959355, 0.03236386, -0.0013367241), (-0.01504358, 0.03224403, -0.0013340261), (-0.015123367, 0.032122586, -0.0013303795), (-0.015198308, 0.03199939, -0.0013256882), (-0.015268094, 0.031874306, -0.0013198777), (-0.0153325545, 0.031747214, -0.0013129002), (-0.01539167, 0.03161801, -0.0013047393), (-0.015445596, 0.031486597, -0.0012954124), (-0.015494655, 0.0313529, -0.0012849723), (-0.015539328, 0.03121688, -0.0012735059), (-0.015580229, 0.03107853, -0.0012611304), (-0.015618068, 0.030937893, -0.0012479883), (-0.015653597, 0.030795071, -0.0012342386), (-0.015687568, 0.03065023, -0.0012200483), (-0.015720667, 0.030503597, -0.0012055819), (-0.01575348, 0.030355455, -0.0011909909), (-0.015786437, 0.030206129, -0.0011764042), (-0.015819795, 0.03005597, -0.0011619197), (-0.01585362, 0.029905327, -0.0011475984), (-0.015887784, 0.029754512, -0.0011334602), (-0.015921991, 0.029603785, -0.0011194843), (-0.015955804, 0.029453317, -0.0011056106), (-0.015988676, 0.029303167, -0.0010917453), (-0.016020015, 0.029153278, -0.0010777683), (-0.01604921, 0.029003471, -0.0010635427), (-0.016075695, 0.028853457, -0.0010489245), (-0.016098974, 0.028702853, -0.0010337738), (-0.016118655, 0.028551219, -0.0010179635), (-0.016134465, 0.0283981, -0.0010013888), (-0.016146252, 0.028243065, -0.0009839719), (-0.016153978, 0.028085753, -0.0009656677), (-0.016157703, 0.027925914, -0.00094646367), (-0.016157553, 0.027763436, -0.00092637894), (-0.016153704, 0.027598362, -0.0009054609), (-0.016146341, 0.027430903, -0.0008837796), (-0.016135648, 0.02726142, -0.00086142117), (-0.01612178, 0.027090395, -0.0008384809), (-0.01610486, 0.026918406, -0.0008150565), (-0.016084978, 0.026746066, -0.00079124246), (-0.016062202, 0.026573995, -0.0007671257), (-0.016036587, 0.026402751, -0.0007427833), (-0.016008208, 0.026232805, -0.0007182817), (-0.015977165, 0.026064504, -0.000693678), (-0.015943624, 0.025898052, -0.0006690222), (-0.015907817, 0.025733517, -0.00064436084), (-0.01587005, 0.025570834, -0.0006197401), (-0.015830714, 0.025409836, -0.00059520913), (-0.01579026, 0.025250284, -0.0005708217), (-0.015749183, 0.02509191, -0.0005466368), (-0.015707992, 0.024934461, -0.0005227174), (-0.01566717, 0.024777722, -0.00049912726), (-0.015627138, 0.024621552, -0.00047592615), (-0.015588215, 0.024465894, -0.0004531641), (-0.015550582, 0.024310777, -0.0004308752), (-0.01551426, 0.024156306, -0.00040907145), (-0.015479097, 0.024002632, -0.0003877381), (-0.015444766, 0.023849925, -0.00036683085), (-0.015410782, 0.023698341, -0.00034627542), (-0.015376535, 0.023547985, -0.0003259707), (-0.015341335, 0.023398882, -0.00030579438), (-0.015304465, 0.023250965, -0.0002856122), (-0.015265249, 0.023104068, -0.00026528913), (-0.015223116, 0.022957932, -0.00024470256), (-0.015177662, 0.022812234, -0.00022375566), (-0.015128713, 0.022666615, -0.0002023903), (-0.015076361, 0.022520721, -0.00018059794), (-0.015020994, 0.02237425, -0.00015842734), (-0.014963305, 0.022226987, -0.0001359881), (-0.014904271, 0.02207884, -0.000113449474), (-0.014845122, 0.021929855, -0.000091034), (-0.01478728, 0.02178022, -0.0000690064), (-0.0147322845, 0.021630263, -0.00004765821), (-0.014681705, 0.021480406, -0.000027289483), (-0.014637051, 0.021331139, -0.000008188804), (-0.01459967, 0.021182967, 0.000009386609), (-0.0145706665, 0.021036364, 0.000025229152), (-0.014550828, 0.020891707, 0.000039195875), (-0.014540566, 0.02074926, 0.000051219078), (-0.014539891, 0.020609122, 0.00006131159), (-0.014548404, 0.020471234, 0.00006956631), (-0.014565321, 0.020335378, 0.00007615004), (-0.01458952, 0.020201195, 0.00008129212), (-0.014619616, 0.020068232, 0.00008526883), (-0.014654045, 0.019935986, 0.00008838478), (-0.014691162, 0.019803949, 0.000090952846), (-0.01472934, 0.019671671, 0.000093274335), (-0.0147670675, 0.01953879, 0.000095620984), (-0.014803029, 0.019405078, 0.00009822032), (-0.014836163, 0.01927044, 0.00010124546), (-0.0148657095, 0.019134926, 0.00010481017), (-0.014891212, 0.018998703, 0.00010896924), (-0.014912513, 0.018862031, 0.000113724), (-0.014929715, 0.018725213, 0.000119032), (-0.01494312, 0.018588549, 0.00012481966), (-0.014953168, 0.018452289, 0.0001309965), (-0.014960362, 0.018316597, 0.00013746922), (-0.014965189, 0.018181518, 0.00014415439), (-0.014968068, 0.018046966, 0.00015098817), (-0.014969301, 0.017912729, 0.00015793255), (-0.0149690425, 0.01777849, 0.00016497727), (-0.014967303, 0.017643856, 0.00017213762), (-0.01496396, 0.01750841, 0.00017944843), (-0.014958807, 0.017371755, 0.00018695522), (-0.014951595, 0.017233564, 0.0001947035), (-0.014942103, 0.017093617, 0.00020272765), (-0.014930192, 0.01695184, 0.00021104072), (-0.0149158705, 0.01680831, 0.00021962644), (-0.0148993265, 0.016663259, 0.00022843441), (-0.014880958, 0.016517049, 0.000237379), (-0.01486137, 0.016370147, 0.0002463424), (-0.014841354, 0.016223079, 0.00025518122), (-0.01482184, 0.016076367, 0.0002637363), (-0.014803837, 0.015930504, 0.00027184444), (-0.014788349, 0.01578589, 0.00027935128), (-0.014776302, 0.015642805, 0.00028612374), (-0.014768453, 0.015501391, 0.00029206113), (-0.014765332, 0.015361642, 0.00029710372), (-0.014767178, 0.01522342, 0.00030123844), (-0.014773913, 0.015086474, 0.00030450049), (-0.014785131, 0.014950473, 0.00030697172), (-0.014800126, 0.014815052, 0.000308775), (-0.014817924, 0.0146798445, 0.00031006575), (-0.014837362, 0.014544521, 0.00031102131), (-0.01485715, 0.014408818, 0.00031182865), (-0.014875969, 0.01427255, 0.0003126721), (-0.014892553, 0.014135615, 0.00031372177), (-0.014905766, 0.013997985, 0.0003151236), (-0.014914668, 0.013859686, 0.00031699202), (-0.01491856, 0.013720776, 0.0003194053), (-0.014917011, 0.013581305, 0.00032240414), (-0.014909858, 0.013441297, 0.00032599273), (-0.014897189, 0.013300723, 0.00033014288), (-0.014879307, 0.013159489, 0.00033479944), (-0.014856678, 0.013017433, 0.00033988743), (-0.014829881, 0.012874334, 0.00034531936), (-0.014799537, 0.0127299335, 0.00035100276), (-0.014766266, 0.012583967, 0.00035684666), (-0.014730629, 0.012436195, 0.0003627673), (-0.014693098, 0.012286437, 0.00036869218), (-0.014654031, 0.012134603, 0.0003745626), (-0.014613661, 0.011980718, 0.00038033503), (-0.014572103, 0.01182493, 0.00038598056), (-0.014529365, 0.011667507, 0.00039148366), (-0.014485376, 0.011508825, 0.00039683995), (-0.014440008, 0.011349336, 0.00040205327), (-0.01439311, 0.011189534, 0.00040713267), (-0.014344531, 0.01102991, 0.00041208928), (-0.014294149, 0.010870909, 0.00041693356), (-0.014241884, 0.010712891, 0.0004216726), (-0.01418771, 0.010556102, 0.00042630846), (-0.0141316615, 0.01040065, 0.0004308366), (-0.014073831, 0.010246506, 0.00043524543), (-0.01401436, 0.010093509, 0.0004395161), (-0.0139534315, 0.00994139, 0.0004436234), (-0.013891257, 0.009789804, 0.0004475369), (-0.013828058, 0.009638376, 0.00045122276), (-0.013764056, 0.009486737, 0.000454646), (-0.013699456, 0.00933457, 0.00045777293), (-0.013634432, 0.009181643, 0.0004605735), (-0.01356912, 0.009027836, 0.00046302407), (-0.013503605, 0.008873153, 0.00046510916), (-0.013437909, 0.008717721, 0.0004668233), (-0.013371994, 0.0085617835, 0.00046817187), (-0.013305751, 0.008405669, 0.00046917135), (-0.013239005, 0.00824977, 0.00046984857), (-0.013171514, 0.008094504, 0.00047023926), (-0.013102981, 0.0079402765, 0.00047038577), (-0.013033066, 0.00778746, 0.00047033431), (-0.012961395, 0.0076363576, 0.0004701318), (-0.012887592, 0.0074871955, 0.00046982258), (-0.012811293, 0.00734011, 0.00046944545), (-0.012732171, 0.007195151, 0.00046903087), (-0.012649965, 0.007052292, 0.00046859912), (-0.012564493, 0.0069114417, 0.00046815895), (-0.012475674, 0.0067724613, 0.00046770723), (-0.0123835355, 0.006635184, 0.00046722934), (-0.012288211, 0.0064994264, 0.00046670032), (-0.012189938, 0.006365003, 0.00046608667), (-0.012089037, 0.006231731, 0.0004653486), (-0.011985891, 0.0060994336, 0.0004644424), (-0.011880912, 0.0059679407, 0.00046332282), (-0.011774513, 0.005837081, 0.0004619456), (-0.011667073, 0.0057066837, 0.00046026916), (-0.011558909, 0.005576573, 0.0004582563), (-0.011450255, 0.005446571, 0.00045587547), (-0.0113412505, 0.005316503, 0.0004531013), (-0.011231933, 0.005186208, 0.00044991518), (-0.011122251, 0.005055554, 0.00044630544), (-0.011012084, 0.0049244533, 0.00044226713), (-0.010901263, 0.0047928803, 0.00043780223), (-0.0107896095, 0.004660889, 0.0004329192), (-0.010676965, 0.0045286217, 0.0004276329), (-0.010563224, 0.004396314, 0.0004219646), (-0.010448353, 0.0042642914, 0.00041594106), (-0.010332417, 0.004132956, 0.00040959462), (-0.010215567, 0.0040027644, 0.00040296186), (-0.0100980485, 0.0038742, 0.00039608273), (-0.009980165, 0.0037477405, 0.00038899886), (-0.009862258, 0.003623823, 0.00038175177), (-0.009744662, 0.0035028122, 0.0003743809), (-0.009627668, 0.0033849757, 0.00036692162), (-0.009511487, 0.0032704673, 0.00035940364), (-0.009396208, 0.0031593204, 0.00035184986), (-0.009281791, 0.003051456, 0.0003442763), (-0.009168041, 0.0029467007, 0.00033669258), (-0.009054625, 0.0028448156, 0.0003291035), (-0.008941089, 0.0027455317, 0.0003215113), (-0.008826884, 0.0026485887, 0.0003139185), (-0.00871142, 0.0025537724, 0.0003063308), (-0.008594101, 0.002460948, 0.00029875975), (-0.008474386, 0.0023700814, 0.00029122498), (-0.008351826, 0.0022812514, 0.00028375525), (-0.008226104, 0.002194646, 0.0002763887), (-0.008097064, 0.0021105467, 0.00026917143), (-0.007964714, 0.002029299, 0.0002621552), (-0.007829233, 0.0019512757, 0.0002553937), (-0.0076909433, 0.0018768347, 0.0002489383), (-0.007550286, 0.0018062753, 0.0002428331), (-0.007407782, 0.0017398018, 0.00023711042), (-0.007263984, 0.0016774932, 0.00023178682), (-0.0071194377, 0.0016192878, 0.00022686046), (-0.0069746375, 0.0015649812, 0.00022231019), (-0.0068299975, 0.0015142398, 0.00021809667), (-0.006685827, 0.0014666285, 0.0002141654), (-0.0065423204, 0.0014216495, 0.00021045173), (-0.006399562, 0.0013787878, 0.00020688729), (-0.0062575354, 0.0013375602, 0.00020340695), (-0.006116146, 0.0012975603, 0.00019995606), (-0.00597525, 0.0012584964, 0.00019649668), (-0.005834681, 0.0012202177, 0.00019301234), (-0.0056942804, 0.0011827247, 0.00018951077), (-0.0055539208, 0.0011461655, 0.00018602415), (-0.0054135243, 0.0011108151, 0.0001826067), (-0.0052730725, 0.0010770411, 0.00017933006), (-0.005132608, 0.0010452617, 0.00017627656), (-0.0049922275, 0.0010158952, 0.00017353117), (-0.004852071, 0.0009893118, 0.00017117284), (-0.0047123046, 0.00096578867, 0.00016926622), (-0.0045731002, 0.0009454743, 0.00016785438), (-0.0044346214, 0.00092836574, 0.00016695335), (-0.0042970027, 0.00091429905, 0.00016654919), (-0.004160342, 0.00090295554, 0.00016659744), (-0.004024691, 0.0008938802, 0.0001670254), (-0.0038900576, 0.00088651176, 0.00016773649), (-0.0037564046, 0.0008802186, 0.00016861643), (-0.0036236614, 0.00087433803, 0.0001695403), (-0.003491732, 0.0008682136, 0.00017037962), (-0.0033605061, 0.00086122635, 0.0001710087), (-0.0032298705, 0.00085281784, 0.00017130958), (-0.003099718, 0.0008425025, 0.000171175), (-0.0029699528, 0.0008298697, 0.00017050932), (-0.0028404961, 0.00081457605, 0.00016922758), (-0.002711286, 0.00079633115, 0.00016725292), (-0.0025822753, 0.0007748802, 0.00016451326), (-0.0024534292, 0.0007499871, 0.00016093795), (-0.0023247208, 0.00072142243, 0.00015645524), (-0.0021961273, 0.0006889596, 0.0001509914), (-0.0020676267, 0.0006523819, 0.00014447221), (-0.0019391968, 0.00061150116, 0.0001368271), (-0.0018108139, 0.0005661872, 0.00012799611), (-0.001682455, 0.0005164071, 0.00011793929), (-0.0015541001, 0.0004622688, 0.00010664794), (-0.0014257361, 0.00040406588, 0.00009415677), (-0.0012973599, 0.0003423173, 0.00008055571), (-0.0011689822, 0.00027779664, 0.00006600015), (-0.0010406297, 0.00021154627, 0.000050718394), (-0.0009123469, 0.00014487252, 0.000035015688), (-0.00078419625, 0.00007931983, 0.00001927673), (-0.00065625826, 0.000016623322, 0.0000039957777), (-0.00052862935, -0.000041357795, 0), (-0.00040142058, -0.00009272278, 0), (-0.00027475538, -0.00013562203, 0), (-0.00014876702, -0.00016835335, 0)]
        color3f[] primvars:displayColor = [(0.15, 0.45, 0.1)]
        uniform token subdivisionScheme = "none"
    }
}

